<svg width="22" height="22" viewBox="0 0 22 22" fill="none" xmlns="http://www.w3.org/2000/svg">
<path d="M11.9108 8.48696V7.87972C11.9108 7.36594 11.4904 6.94556 10.9766 6.94556C10.4629 6.94556 10.0425 7.36594 10.0425 7.87972V8.48696C5.37155 9.00074 1.77496 13.2513 1.77496 18.3893C1.77496 18.9031 2.19539 19.3234 2.70918 19.3234H19.2442C19.758 19.3234 20.1784 18.9031 20.1784 18.3893C20.1783 13.2046 16.5817 9.00074 11.9108 8.48696ZM3.6433 17.5018C4.06368 13.4381 7.14648 10.3086 10.9299 10.3086C14.7134 10.3086 17.8429 13.4381 18.2633 17.5018H3.6433Z" fill="#7C75AF"/>
<path d="M21.0658 20.1174H0.934168C0.420382 20.1174 0 20.5378 0 21.0516C0 21.5654 0.420382 21.9858 0.934168 21.9858H21.0191C21.5329 21.9858 21.9533 21.5654 22 21.0516C22 20.5378 21.5796 20.1174 21.0658 20.1174Z" fill="#7C75AF"/>
<path d="M4.85778 6.8988C4.9045 6.85207 4.9045 6.80539 4.95118 6.71195C5.09131 6.47842 5.27816 6.15144 5.27816 5.68433C5.27816 5.17054 5.13803 4.79684 4.9979 4.51659C4.76437 3.95608 4.43739 3.58242 4.06374 3.44229C3.78348 3.34889 3.4565 3.34889 3.17625 3.48902C2.75586 3.72255 2.52233 4.23638 2.75587 4.70344C2.89599 4.98365 3.12952 5.1705 3.36305 5.21722V5.26395C3.40978 5.35735 3.50318 5.5442 3.50318 5.59093C3.50318 5.63765 3.40978 5.77778 3.36305 5.87118C3.31633 5.96459 3.26965 6.10471 3.22293 6.19816C2.84927 7.08565 2.94267 8.25335 3.45646 9.00071C3.64331 9.28096 3.92356 9.42109 4.20382 9.42109C4.34395 9.42109 4.5308 9.37437 4.7176 9.23424C5.13799 8.95399 5.23139 8.39348 4.95114 7.97309C4.76433 7.69284 4.71765 7.22573 4.85778 6.8988Z" fill="#7C75AF"/>
<path d="M11.6773 3.53576C11.724 3.48904 11.724 3.39563 11.7707 3.34891C11.9108 3.11538 12.0977 2.7884 12.0977 2.32129C12.0977 1.80751 11.9576 1.43381 11.8174 1.15355C11.5839 0.593041 11.2569 0.219382 10.8833 0.0792548C10.603 -0.0141489 10.276 -0.0141489 9.99577 0.125979C9.57538 0.35951 9.34185 0.873339 9.57538 1.3404C9.71551 1.62066 9.94904 1.80746 10.1826 1.85419C10.2293 1.99432 10.3227 2.18117 10.3227 2.22785C10.3227 2.27457 10.2293 2.4147 10.1826 2.5081C10.1358 2.6015 10.0892 2.74163 10.0424 2.83508C9.66879 3.72257 9.76219 4.89027 10.276 5.63763C10.4628 5.91788 10.7431 6.05801 11.0233 6.05801C11.2102 6.05801 11.3503 6.01129 11.5371 5.87116C11.9575 5.5909 12.0509 5.0304 11.7707 4.61001C11.5839 4.32985 11.5372 3.86274 11.6773 3.53576Z" fill="#7C75AF"/>
<path d="M19.104 9.14082C18.8705 8.90729 18.7304 8.30006 18.7304 7.59942C18.7304 7.31917 18.7771 6.99219 18.7771 6.71193C18.8238 6.19815 18.8705 5.68432 18.8238 5.17053C18.7304 4.09624 18.1232 3.72253 17.6094 3.72253C17.0956 3.72253 16.6752 4.14292 16.6752 4.6567C16.6752 4.93696 16.7686 5.17049 16.9555 5.35734C16.9555 5.77768 16.9555 6.1981 16.9088 6.61844C16.862 6.9921 16.862 7.31908 16.862 7.64606C16.862 8.48682 17.0022 9.60784 17.7028 10.4019C17.8897 10.6354 18.1699 10.7289 18.4034 10.7289C18.5903 10.7289 18.8238 10.6821 19.0107 10.4486C19.3842 10.1217 19.431 9.51448 19.104 9.14082Z" fill="#7C75AF"/>
</svg>
