<svg width="39" height="39" viewBox="0 0 39 39" fill="none" xmlns="http://www.w3.org/2000/svg">
<g clip-path="url(#clip0)">
<path d="M0.446823 20.5784C0.447281 20.5788 0.447662 20.5794 0.448196 20.5798L8.40846 28.5017C9.00481 29.0951 9.96938 29.0929 10.563 28.4965C11.1565 27.9002 11.1542 26.9356 10.5579 26.3421L5.21336 21.0234L37.4766 21.0234C38.318 21.0234 39 20.3414 39 19.5C39 18.6586 38.318 17.9766 37.4766 17.9766L5.21343 17.9766L10.5578 12.658C11.1542 12.0644 11.1564 11.0999 10.5629 10.5035C9.9693 9.90701 9.00466 9.90495 8.40838 10.4983L0.44812 18.4202C0.447662 18.4207 0.447281 18.4212 0.446747 18.4216C-0.149906 19.0172 -0.148003 19.9848 0.446823 20.5784Z" fill="#1F1E1E"/>
</g>
<defs>
<clipPath id="clip0">
<rect width="39" height="39" fill="white" transform="translate(39 39) rotate(-180)"/>
</clipPath>
</defs>
</svg>
