<svg width="14" height="14" viewBox="0 0 14 14" fill="none" xmlns="http://www.w3.org/2000/svg">
<path d="M12.6606 13.676C12.5272 13.6761 12.3952 13.6498 12.2719 13.5988C12.1487 13.5479 12.0367 13.4731 11.9424 13.3788L0.309988 1.74576C0.213007 1.65209 0.135652 1.54005 0.082436 1.41617C0.0292201 1.29228 0.00120992 1.15904 3.83387e-05 1.02422C-0.00113324 0.889396 0.0245575 0.75569 0.0756126 0.630901C0.126668 0.506113 0.202064 0.392741 0.297402 0.297403C0.39274 0.202065 0.506112 0.126669 0.6309 0.0756136C0.755689 0.0245586 0.889395 -0.00113324 1.02422 3.83373e-05C1.15904 0.00120992 1.29228 0.0292211 1.41617 0.082437C1.54005 0.135653 1.65209 0.213008 1.74576 0.309989L13.3788 11.943C13.5207 12.0851 13.6173 12.266 13.6563 12.4629C13.6954 12.6598 13.6753 12.8639 13.5984 13.0494C13.5215 13.2348 13.3914 13.3933 13.2245 13.5049C13.0576 13.6164 12.8613 13.6759 12.6606 13.676Z" fill="white"/>
<path d="M1.02754 13.676C0.826839 13.6758 0.630695 13.6162 0.463878 13.5046C0.297061 13.393 0.167053 13.2345 0.0902736 13.049C0.0134942 12.8636 -0.00661214 12.6596 0.0324933 12.4627C0.0715988 12.2659 0.168162 12.085 0.309988 11.943L11.9424 0.309987C12.1328 0.119503 12.391 0.0124536 12.6604 0.0123902C12.9297 0.0123267 13.188 0.119254 13.3785 0.309649C13.569 0.500044 13.676 0.75831 13.6761 1.02763C13.6761 1.29696 13.5692 1.55527 13.3788 1.74576L1.74576 13.3788C1.65142 13.4731 1.53944 13.5479 1.41621 13.5988C1.29297 13.6498 1.1609 13.6761 1.02754 13.676Z" fill="white"/>
</svg>
