<svg width="20" height="20" viewBox="0 0 20 20" fill="none" xmlns="http://www.w3.org/2000/svg">
<g clip-path="url(#clip0)">
<path d="M9.25547 9.11482L0.271094 5.33192C0.142383 5.27771 0 5.37224 0 5.51192V15.6252C0 15.8807 0.155586 16.1106 0.392891 16.2054L9.10715 19.6911C9.23543 19.7425 9.375 19.648 9.375 19.5098V9.29481C9.375 9.21626 9.32789 9.14532 9.25547 9.11482V9.11482Z" fill="white"/>
<path d="M10.0764 8.03995L18.7605 4.38347C18.9166 4.31776 18.9208 4.09808 18.7673 4.02647L10.2649 0.058623C10.0973 -0.019541 9.90382 -0.019541 9.73628 0.058623L1.23382 4.02644C1.08034 4.09804 1.08452 4.31772 1.24062 4.38343L9.9248 8.03991C9.97323 8.06034 10.0279 8.06034 10.0764 8.03995V8.03995Z" fill="white"/>
<path d="M15.625 10.0002C17.2777 10.0002 18.7661 10.7169 19.7961 11.8556C19.868 11.9352 20 11.8846 20 11.7773V5.51192C20 5.37224 19.8576 5.27771 19.7289 5.33192L10.7445 9.11481C10.6721 9.14532 10.625 9.21622 10.625 9.29481V12.6071C10.625 12.725 10.7793 12.7689 10.8414 12.6688C11.8341 11.0683 13.6071 10.0002 15.625 10.0002V10.0002Z" fill="white"/>
<path d="M15.625 11.25C13.2126 11.25 11.25 13.2126 11.25 15.625C11.25 18.0374 13.2126 20 15.625 20C18.0374 20 20 18.0374 20 15.625C20 13.2126 18.0374 11.25 15.625 11.25ZM17.0044 16.1205C17.2485 16.3646 17.2485 16.7604 17.0044 17.0045C16.8824 17.1265 16.7225 17.1875 16.5625 17.1875C16.4025 17.1875 16.2426 17.1265 16.1206 17.0045L15.625 16.5089L15.1294 17.0045C15.0074 17.1265 14.8475 17.1875 14.6875 17.1875C14.5275 17.1875 14.3676 17.1265 14.2456 17.0045C14.0015 16.7604 14.0015 16.3646 14.2456 16.1205L14.7411 15.625L14.2456 15.1295C14.0015 14.8854 14.0015 14.4896 14.2456 14.2455C14.4896 14.0015 14.8854 14.0015 15.1295 14.2455L15.625 14.7411L16.1206 14.2455C16.3646 14.0014 16.7604 14.0014 17.0045 14.2455C17.2486 14.4896 17.2486 14.8853 17.0045 15.1294L16.5089 15.625L17.0044 16.1205Z" fill="white"/>
</g>
<defs>
<clipPath id="clip0">
<rect width="20" height="20" fill="white"/>
</clipPath>
</defs>
</svg>
