<svg width="20" height="20" viewBox="0 0 20 20" fill="none" xmlns="http://www.w3.org/2000/svg">
<g clip-path="url(#clip0)">
<path d="M17.8955 5.26245C17.4813 5.46285 17.3079 5.9613 17.5083 6.37533C18.0558 7.50631 18.3333 8.72538 18.3333 10C18.3333 14.5949 14.5949 18.3333 10 18.3333C5.40507 18.3333 1.66667 14.5949 1.66667 10C1.66667 5.40507 5.40507 1.66667 10 1.66667C11.9041 1.66667 13.6928 2.28841 15.1733 3.46456C15.5324 3.75122 16.0575 3.6912 16.3442 3.33089C16.6309 2.97078 16.5708 2.44629 16.2103 2.16003C14.4576 0.767008 12.252 0 10 0C4.48629 0 0 4.48629 0 10C0 15.5137 4.48629 20 10 20C15.5137 20 20 15.5137 20 10C20 8.47209 19.6663 7.00785 19.0084 5.64962C18.8084 5.23458 18.3083 5.06165 17.8955 5.26245Z" fill="#8A8A8A"/>
<path d="M9.99935 3.33398C9.53935 3.33398 9.16602 3.70732 9.16602 4.16732V10.0007C9.16602 10.4607 9.53935 10.834 9.99935 10.834H14.166C14.626 10.834 14.9993 10.4607 14.9993 10.0007C14.9993 9.54065 14.626 9.16732 14.166 9.16732H10.8327V4.16732C10.8327 3.70732 10.4593 3.33398 9.99935 3.33398Z" fill="#8A8A8A"/>
</g>
<defs>
<clipPath id="clip0">
<rect width="20" height="20" fill="white"/>
</clipPath>
</defs>
</svg>
