<svg width="44" height="44" viewBox="0 0 44 44" fill="none" xmlns="http://www.w3.org/2000/svg">
<circle cx="22" cy="22" r="22" fill="#EC2325"/>
<g clip-path="url(#clip0)">
<path d="M30.7336 14.6869L29.4212 13.39C29.066 13.0349 28.4793 13.0349 28.1087 13.39L21.5617 19.9368L14.8914 13.2665C14.5361 12.9112 13.9494 12.9112 13.5789 13.2665L12.2665 14.5789C11.9112 14.9341 11.9112 15.5208 12.2665 15.8914L18.9215 22.5464L12.39 29.1089C12.0349 29.464 12.0349 30.0507 12.39 30.4213L13.7025 31.7338C14.0576 32.0889 14.6444 32.0889 15.0149 31.7338L21.5617 25.1869L28.1087 31.7338C28.4638 32.0889 29.0506 32.0889 29.4212 31.7338L30.7336 30.4213C31.0888 30.0662 31.0888 29.4794 30.7336 29.1089L24.1713 22.5619L30.7182 16.0151C31.0888 15.6442 31.0888 15.0575 30.7336 14.6869Z" fill="white"/>
</g>
<defs>
<clipPath id="clip0">
<rect width="19" height="19" fill="white" transform="translate(12 13)"/>
</clipPath>
</defs>
</svg>
