<svg width="22" height="22" viewBox="0 0 22 22" fill="none" xmlns="http://www.w3.org/2000/svg">
<g clip-path="url(#clip0)">
<path d="M20.2974 19.6116C20.0507 19.0086 19.7995 18.4055 19.5254 17.8116C19.2832 17.2817 18.9726 17.1264 18.3924 17.2589C17.6569 17.4279 16.9351 17.6517 16.1996 17.8025C14.7788 18.0994 13.3534 18.1269 11.9509 17.6837C10.1921 17.1309 9.25559 15.8564 8.67997 14.2117H13.4494C13.824 14.2117 14.1255 13.9102 14.1255 13.5356V12.0326C14.1255 11.658 13.824 11.3565 13.4494 11.3565H8.22313C8.22313 10.9362 8.21856 10.5342 8.22313 10.1321H13.4494C13.824 10.1321 14.1255 9.83064 14.1255 9.45603V7.95302C14.1255 7.57841 13.824 7.2769 13.4494 7.2769H8.88098C8.88098 7.25863 8.88098 7.24035 8.89012 7.23122C9.43832 5.98404 10.2378 4.98356 11.5489 4.46277C13.0748 3.85974 14.6326 3.87344 16.2041 4.1978C16.9488 4.34856 17.6797 4.57698 18.4244 4.74601C18.968 4.86935 19.2832 4.70946 19.5162 4.20237C19.7858 3.61761 20.0324 3.02372 20.2791 2.42526C20.5121 1.86335 20.3751 1.46589 19.8451 1.15524C19.7127 1.07758 19.5756 1.01362 19.434 0.958802C17.232 0.0999432 14.9615 -0.219845 12.6179 0.154764C10.9687 0.419731 9.42919 0.986213 8.09978 2.01867C6.42318 3.3161 5.3359 5.02925 4.70546 7.04391L4.6278 7.2769H2.27964C1.90503 7.2769 1.60352 7.57841 1.60352 7.95302V9.45603C1.60352 9.83064 1.90503 10.1321 2.27964 10.1321H4.12984C4.12984 10.5433 4.12984 10.9408 4.12984 11.3565H2.27964C1.90503 11.3565 1.60352 11.658 1.60352 12.0326V13.5356C1.60352 13.9102 1.90503 14.2117 2.27964 14.2117H4.50902C4.67805 14.7599 4.81967 15.3173 5.03438 15.8426C6.16278 18.5654 8.0541 20.5024 10.9002 21.4252C13.2529 22.1882 15.6239 22.1653 17.9949 21.512C18.6117 21.343 19.2238 21.1237 19.8086 20.8542C20.3751 20.5938 20.5213 20.1552 20.2974 19.6116Z" fill="#EC2325"/>
</g>
<defs>
<clipPath id="clip0">
<rect width="22" height="22" fill="white"/>
</clipPath>
</defs>
</svg>
