<svg width="29" height="29" viewBox="0 0 29 29" fill="none" xmlns="http://www.w3.org/2000/svg">
<g clip-path="url(#clip0)">
<path d="M28.1517 22.1471H5.94753C5.74837 22.1471 5.5559 22.0774 5.40325 21.9504C5.18998 21.7718 0.325071 17.5868 0.0284309 8.55273H23.8752C24.1707 16.7532 28.6511 20.6076 28.6976 20.6461C28.9706 20.8768 29.071 21.2535 28.9482 21.5887C28.8263 21.9231 28.5084 22.1471 28.1517 22.1471Z" fill="#EC2325"/>
<path d="M0.848579 3.45515H5.09682V2.60551C5.09682 2.1297 5.47066 1.75586 5.94646 1.75586C6.42227 1.75586 6.79611 2.1297 6.79611 2.60551V3.45515H11.101V2.60551C11.101 2.1297 11.4748 1.75586 11.9506 1.75586C12.4264 1.75586 12.8003 2.1297 12.8003 2.60551V3.45515H17.0485V2.60551C17.0485 2.1297 17.4224 1.75586 17.8982 1.75586C18.374 1.75586 18.7478 2.1297 18.7478 2.60551V3.45515H22.9961C23.4719 3.45515 23.8457 3.829 23.8457 4.3048V6.85374H-0.00106812V4.3048C-0.00106812 3.829 0.372776 3.45515 0.848579 3.45515Z" fill="#EC2325"/>
<path d="M4.31106 23.2532C4.77242 23.6374 5.35153 23.8465 5.94646 23.8465H23.8457V26.3954C23.8457 26.865 23.4657 27.2451 22.9961 27.2451H0.848572C0.378942 27.2451 -0.00107574 26.865 -0.00107574 26.3954V16.8711C1.63704 20.89 3.92294 22.9283 4.31106 23.2532Z" fill="#EC2325"/>
</g>
<defs>
<clipPath id="clip0">
<rect width="29" height="29" fill="white" transform="matrix(-1 0 0 1 29 0)"/>
</clipPath>
</defs>
</svg>
