<svg width="18" height="18" viewBox="0 0 18 18" fill="none" xmlns="http://www.w3.org/2000/svg">
<g clip-path="url(#clip0)">
<path d="M17.4375 5.625H10.3125C10.002 5.625 9.75 5.877 9.75 6.1875C9.75 6.498 10.002 6.75 10.3125 6.75H17.4375C17.748 6.75 18 6.498 18 6.1875C18 5.877 17.748 5.625 17.4375 5.625Z" fill="white"/>
<path d="M17.4375 7.875H10.3125C10.002 7.875 9.75 8.127 9.75 8.4375C9.75 8.748 10.002 9 10.3125 9H17.4375C17.748 9 18 8.748 18 8.4375C18 8.127 17.748 7.875 17.4375 7.875Z" fill="white"/>
<path d="M17.4375 10.125H10.3125C10.002 10.125 9.75 10.377 9.75 10.6875C9.75 10.998 10.002 11.25 10.3125 11.25H17.4375C17.748 11.25 18 10.998 18 10.6875C18 10.377 17.748 10.125 17.4375 10.125Z" fill="white"/>
<path d="M17.4375 12.375H10.3125C10.002 12.375 9.75 12.627 9.75 12.9375C9.75 13.248 10.002 13.5 10.3125 13.5H17.4375C17.748 13.5 18 13.248 18 12.9375C18 12.627 17.748 12.375 17.4375 12.375Z" fill="white"/>
<path d="M17.4375 14.625H10.3125C10.002 14.625 9.75 14.877 9.75 15.1875C9.75 15.498 10.002 15.75 10.3125 15.75H17.4375C17.748 15.75 18 15.498 18 15.1875C18 14.877 17.748 14.625 17.4375 14.625Z" fill="white"/>
<path d="M1.3125 11.25H6.9375C7.66125 11.25 8.25 10.6613 8.25 9.9375V6.9375C8.25 6.21375 7.66125 5.625 6.9375 5.625H1.3125C0.58875 5.625 0 6.21375 0 6.9375V9.9375C0 10.6613 0.58875 11.25 1.3125 11.25Z" fill="white"/>
<path d="M1.3125 18H6.9375C7.66125 18 8.25 17.4113 8.25 16.6875V13.6875C8.25 12.9638 7.66125 12.375 6.9375 12.375H1.3125C0.58875 12.375 0 12.9638 0 13.6875V16.6875C0 17.4113 0.58875 18 1.3125 18Z" fill="white"/>
<path d="M17.4375 16.875H10.3125C10.002 16.875 9.75 17.127 9.75 17.4375C9.75 17.748 10.002 18 10.3125 18H17.4375C17.748 18 18 17.748 18 17.4375C18 17.127 17.748 16.875 17.4375 16.875Z" fill="white"/>
<path d="M16.6875 0H7.3125C6.58875 0 6 0.58875 6 1.3125V3.1875C6 3.91125 6.58875 4.5 7.3125 4.5H16.6875C17.4113 4.5 18 3.91125 18 3.1875V1.3125C18 0.58875 17.4113 0 16.6875 0Z" fill="white"/>
<path d="M2.25 4.5C3.49264 4.5 4.5 3.49264 4.5 2.25C4.5 1.00736 3.49264 0 2.25 0C1.00736 0 0 1.00736 0 2.25C0 3.49264 1.00736 4.5 2.25 4.5Z" fill="white"/>
</g>
<defs>
<clipPath id="clip0">
<rect width="18" height="18" fill="white"/>
</clipPath>
</defs>
</svg>
