<svg width="18" height="18" viewBox="0 0 18 18" fill="none" xmlns="http://www.w3.org/2000/svg">
<g clip-path="url(#clip0)">
<path d="M7.50061 1.08655H10.5089V1.59274H11.5954V1.01569C11.5955 0.455658 11.1401 0 10.5804 0H7.4292C6.86945 0 6.41406 0.455658 6.41406 1.01569V1.59274H7.50061V1.08655Z" fill="#B3B3B3"/>
<path d="M14.1054 5.89844H3.90627C3.6268 5.89844 3.4068 6.13684 3.42932 6.41548L4.282 16.9591C4.32951 17.5477 4.82047 18.001 5.41029 18.001H12.6013C13.1911 18.001 13.682 17.5477 13.7296 16.9589L14.5822 6.41548C14.6049 6.13684 14.3849 5.89844 14.1054 5.89844ZM6.37585 16.8764C6.36446 16.8771 6.35306 16.8775 6.3418 16.8775C6.05698 16.8775 5.81789 16.6557 5.80017 16.3676L5.26582 7.71187C5.24742 7.41235 5.47525 7.15459 5.77463 7.13618C6.07304 7.11806 6.33191 7.34534 6.35031 7.64499L6.88452 16.3007C6.90306 16.6002 6.67523 16.8578 6.37585 16.8764ZM9.55516 16.3342C9.55516 16.6341 9.31195 16.8773 9.01189 16.8773C8.71182 16.8773 8.46861 16.6341 8.46861 16.3342V7.67836C8.46861 7.3783 8.71182 7.13509 9.01189 7.13509C9.31181 7.13509 9.55516 7.3783 9.55516 7.67836V16.3342ZM12.7459 7.71036L12.2357 16.3661C12.2188 16.6547 11.9793 16.8773 11.6939 16.8773C11.6832 16.8773 11.6724 16.8771 11.6615 16.8765C11.362 16.8588 11.1335 16.6017 11.1512 16.3022L11.6612 7.64636C11.6788 7.34685 11.9351 7.11833 12.2354 7.13605C12.5349 7.15363 12.7634 7.41084 12.7459 7.71036Z" fill="#B3B3B3"/>
<path d="M15.9837 4.22134L15.6269 3.15182C15.5329 2.86989 15.2689 2.67969 14.9716 2.67969H3.03921C2.74203 2.67969 2.47795 2.86989 2.38401 3.15182L2.02723 4.22134C1.95843 4.42761 2.04797 4.638 2.2151 4.74292C2.28322 4.78563 2.36383 4.81131 2.4524 4.81131H15.5585C15.6471 4.81131 15.7279 4.78563 15.7959 4.74278C15.963 4.63786 16.0525 4.42747 15.9837 4.22134Z" fill="#B3B3B3"/>
</g>
<defs>
<clipPath id="clip0">
<rect width="18" height="18" fill="white"/>
</clipPath>
</defs>
</svg>
