<svg width="22" height="22" viewBox="0 0 22 22" fill="none" xmlns="http://www.w3.org/2000/svg">
<path d="M13.5862 3.69531L1.48148 15.8009C1.42058 15.862 1.37661 15.9391 1.35567 16.022L0.0139751 21.4072C-0.0261587 21.5694 0.0214784 21.7418 0.139786 21.8601C0.229302 21.9496 0.351274 21.9991 0.476038 21.9991C0.514252 21.9991 0.553339 21.9944 0.591379 21.9848L5.97664 20.643C6.06057 20.622 6.13683 20.5782 6.19773 20.5173L18.3035 8.41261L13.5862 3.69531Z" fill="#8A8A8A"/>
<path d="M21.3032 2.04403L19.9558 0.696583C19.0552 -0.203985 17.4856 -0.203112 16.5861 0.696583L14.9355 2.34713L19.6527 7.06425L21.3032 5.4137C21.753 4.96403 22.0008 4.36551 22.0008 3.72896C22.0008 3.0924 21.753 2.49388 21.3032 2.04403Z" fill="#8A8A8A"/>
</svg>
