<svg width="28" height="28" viewBox="0 0 28 28" fill="none" xmlns="http://www.w3.org/2000/svg">
<g clip-path="url(#clip0)">
<path d="M21.875 10.5H21V7C21 3.1395 17.8605 0 14 0C10.1395 0 7 3.1395 7 7V10.5H6.125C4.67833 10.5 3.5 11.6772 3.5 13.125V25.375C3.5 26.8228 4.67833 28 6.125 28H21.875C23.3217 28 24.5 26.8228 24.5 25.375V13.125C24.5 11.6772 23.3217 10.5 21.875 10.5ZM9.33333 7C9.33333 4.42633 11.4263 2.33333 14 2.33333C16.5737 2.33333 18.6667 4.42633 18.6667 7V10.5H9.33333V7ZM15.1667 19.509V22.1667C15.1667 22.8107 14.6452 23.3333 14 23.3333C13.3548 23.3333 12.8333 22.8107 12.8333 22.1667V19.509C12.1392 19.1042 11.6667 18.3598 11.6667 17.5C11.6667 16.2132 12.7132 15.1667 14 15.1667C15.2868 15.1667 16.3333 16.2132 16.3333 17.5C16.3333 18.3598 15.8608 19.1042 15.1667 19.509Z" fill="#F1FFE7"/>
</g>
<defs>
<clipPath id="clip0">
<rect width="28" height="28" fill="white"/>
</clipPath>
</defs>
</svg>
