<svg width="20" height="20" viewBox="0 0 20 20" fill="none" xmlns="http://www.w3.org/2000/svg">
<path d="M17.5 2.5H15.625V0.625C15.625 0.28 15.345 0 15 0H3.75C2.71625 0 1.875 0.84125 1.875 1.875V17.5C1.875 18.8787 2.99625 20 4.375 20H17.5C17.845 20 18.125 19.72 18.125 19.375V3.125C18.125 2.78 17.845 2.5 17.5 2.5ZM13.75 16.25H6.25C5.905 16.25 5.625 15.97 5.625 15.625C5.625 15.28 5.905 15 6.25 15H13.75C14.095 15 14.375 15.28 14.375 15.625C14.375 15.97 14.095 16.25 13.75 16.25ZM5.625 7.5C5.625 6.0975 6.44875 5 7.5 5C8.55125 5 9.375 6.0975 9.375 7.5C9.375 8.60625 8.85875 9.515 8.125 9.85125V13.125C8.125 13.47 7.845 13.75 7.5 13.75C7.155 13.75 6.875 13.47 6.875 13.125V9.85125C6.14125 9.515 5.625 8.60625 5.625 7.5ZM14.375 10.625C14.375 10.97 14.095 11.25 13.75 11.25H11.875V13.125C11.875 13.47 11.595 13.75 11.25 13.75C10.905 13.75 10.625 13.47 10.625 13.125V5.625C10.625 5.28 10.905 5 11.25 5C12.9738 5 14.375 6.4025 14.375 8.125V10.625ZM14.375 2.5H3.75C3.405 2.5 3.125 2.22 3.125 1.875C3.125 1.53 3.405 1.25 3.75 1.25H14.375V2.5Z" fill="white"/>
</svg>
