<svg width="33" height="33" viewBox="0 0 33 33" fill="none" xmlns="http://www.w3.org/2000/svg">
<g clip-path="url(#clip0)">
<path d="M6.50969 16.9423V13.8574C6.50969 9.35718 9.50102 5.5429 13.5995 4.29709V2.90039C13.5995 1.30112 14.9006 0 16.4999 0C18.0992 0 19.4003 1.30112 19.4003 2.90039V4.29709C23.4989 5.5429 26.4902 9.35711 26.4902 13.8574V16.9423C26.4902 20.8953 27.9969 24.6437 30.7329 27.4969C31.001 27.7765 31.0764 28.189 30.9244 28.5453C30.7724 28.9016 30.4224 29.1328 30.0351 29.1328H21.2366C20.7875 31.3366 18.8344 33 16.4999 33C14.1654 33 12.2124 31.3366 11.7632 29.1328H2.96477C2.57741 29.1328 2.22749 28.9016 2.07551 28.5453C1.92353 28.189 1.99887 27.7765 2.26694 27.4969C5.00291 24.6437 6.50969 20.8953 6.50969 16.9423ZM17.4667 2.90039C17.4667 2.3673 17.033 1.93359 16.4999 1.93359C15.9668 1.93359 15.5331 2.3673 15.5331 2.90039V3.91411C15.8513 3.88343 16.1738 3.86719 16.4999 3.86719C16.8261 3.86719 17.1485 3.88343 17.4667 3.91411V2.90039ZM16.4999 31.0664C17.7603 31.0664 18.8349 30.2581 19.234 29.1328H13.7658C14.1649 30.2581 15.2395 31.0664 16.4999 31.0664ZM27.9513 27.1992C25.7495 24.2478 24.5566 20.676 24.5566 16.9423V13.8574C24.5566 9.41499 20.9424 5.80078 16.4999 5.80078C12.0575 5.80078 8.44328 9.41499 8.44328 13.8574V16.9423C8.44328 20.676 7.25032 24.2478 5.04848 27.1992H27.9513Z" fill="black"/>
<path d="M3.93213 13.857C3.93213 14.3909 3.49926 14.8238 2.96533 14.8238C2.4314 14.8238 1.99853 14.3909 1.99853 13.857C1.99853 9.98335 3.50699 6.34155 6.24606 3.60249C6.62356 3.22498 7.23574 3.22492 7.61331 3.60249C7.99088 3.98005 7.99088 4.59216 7.61331 4.96973C5.23943 7.3436 3.93213 10.4998 3.93213 13.857Z" fill="black"/>
<path d="M30.0352 14.8237C29.5012 14.8237 29.0684 14.3909 29.0684 13.8569C29.0684 10.4998 27.761 7.34363 25.3872 4.96975C25.0096 4.59219 25.0096 3.98008 25.3872 3.60251C25.7647 3.22494 26.3769 3.22494 26.7544 3.60251C29.4935 6.34158 31.002 9.98331 31.002 13.8569C31.002 14.3909 30.5691 14.8237 30.0352 14.8237Z" fill="black"/>
</g>
<defs>
<clipPath id="clip0">
<rect width="33" height="33" fill="white" transform="matrix(-1 0 0 1 33 0)"/>
</clipPath>
</defs>
</svg>
