<svg width="14" height="21" viewBox="0 0 14 21" fill="none" xmlns="http://www.w3.org/2000/svg">
<path d="M7.4645 0.855173C7.45499 0.383622 7.06071 0 6.58559 0C6.11047 0 5.71614 0.383622 5.70667 0.855131C5.69898 1.23548 5.3888 1.5398 5.00879 1.5398H4.08009C4.08017 1.69569 4.08004 2.15369 4.08009 2.30411H9.09108C9.09134 2.09881 9.09036 1.73732 9.09108 1.5398H8.16238C7.78241 1.5398 7.47219 1.23548 7.4645 0.855173Z" fill="white"/>
<path d="M12.953 2.46875H10.4877V2.61513C10.4877 3.21454 9.99973 3.70215 9.39998 3.70215H3.77233C3.17258 3.70215 2.68463 3.2145 2.68463 2.61513V2.46875H0.219316C0.0983798 2.46875 0 2.5653 0 2.68399V20.7852C0 20.9039 0.0983798 21.0004 0.219316 21.0004H12.953C13.0739 21.0004 13.1723 20.9039 13.1723 20.7852V2.68399C13.1723 2.5653 13.0739 2.46875 12.953 2.46875ZM1.53521 6.5541C1.79564 6.26627 2.24005 6.24405 2.52788 6.50449L2.87362 6.8173L4.16347 5.34419C4.41915 5.05211 4.86317 5.02276 5.15521 5.27844C5.44725 5.53411 5.47669 5.97814 5.22097 6.27018L3.46054 8.28072C3.18553 8.6033 2.69228 8.55602 2.46026 8.33891L1.58482 7.54682C1.29703 7.28639 1.27482 6.84193 1.53521 6.5541ZM11.1081 19.4206H1.99865C1.61052 19.4206 1.29584 19.106 1.29584 18.7178C1.29584 18.3296 1.61048 18.015 1.99865 18.015H11.1081C11.4962 18.015 11.8109 18.3296 11.8109 18.7178C11.8109 19.106 11.4962 19.4206 11.1081 19.4206ZM1.53521 14.6109C1.79564 14.3231 2.24005 14.3008 2.52788 14.5613L2.87362 14.8741L4.16347 13.401C4.41915 13.1089 4.86317 13.0795 5.15521 13.3352C5.44725 13.5909 5.47669 14.0349 5.22097 14.3269L3.46054 16.3375C3.18553 16.6601 2.69228 16.6128 2.46026 16.3956L1.58482 15.6036C1.29703 15.3431 1.27482 14.8987 1.53521 14.6109ZM11.1081 16.5471H7.15679C6.76866 16.5471 6.45399 16.2325 6.45399 15.8443C6.45399 15.4562 6.76866 15.1415 7.15679 15.1415H11.1081C11.4962 15.1415 11.8109 15.4562 11.8109 15.8443C11.8109 16.2325 11.4962 16.5471 11.1081 16.5471ZM11.1081 11.4082H1.99865C1.61052 11.4082 1.29584 11.0936 1.29584 10.7054C1.29584 10.3173 1.61048 10.0026 1.99865 10.0026H11.1081C11.4962 10.0026 11.8109 10.3173 11.8109 10.7054C11.8109 11.0936 11.4962 11.4082 11.1081 11.4082ZM11.1081 8.49307H7.15679C6.76866 8.49307 6.45399 8.17843 6.45399 7.79026C6.45399 7.40214 6.76866 7.08746 7.15679 7.08746H11.1081C11.4962 7.08746 11.8109 7.40214 11.8109 7.79026C11.8109 8.17839 11.4962 8.49307 11.1081 8.49307Z" fill="white"/>
</svg>
