<svg width="20" height="20" viewBox="0 0 20 20" fill="none" xmlns="http://www.w3.org/2000/svg">
<path d="M19.061 0.126998L5.534 19H0.89L14.444 0.126998H19.061ZM14.525 16.408C14.741 16.642 15.011 16.759 15.335 16.759C15.659 16.759 15.929 16.642 16.145 16.408C16.361 16.156 16.469 15.832 16.469 15.436C16.469 15.04 16.361 14.716 16.145 14.464C15.929 14.194 15.659 14.059 15.335 14.059C15.029 14.059 14.768 14.194 14.552 14.464C14.336 14.716 14.228 15.04 14.228 15.436C14.228 15.832 14.327 16.156 14.525 16.408ZM19.331 15.436C19.331 16.498 18.953 17.398 18.197 18.136C17.441 18.856 16.487 19.216 15.335 19.216C14.201 19.216 13.256 18.847 12.5 18.109C11.744 17.371 11.366 16.48 11.366 15.436C11.366 14.374 11.744 13.474 12.5 12.736C13.256 11.998 14.201 11.629 15.335 11.629C16.487 11.629 17.441 11.998 18.197 12.736C18.953 13.474 19.331 14.374 19.331 15.436ZM3.887 5.365C4.103 5.599 4.373 5.716 4.697 5.716C5.021 5.716 5.291 5.599 5.507 5.365C5.723 5.113 5.831 4.789 5.831 4.393C5.831 3.997 5.723 3.673 5.507 3.421C5.291 3.151 5.021 3.016 4.697 3.016C4.391 3.016 4.13 3.151 3.914 3.421C3.698 3.673 3.59 3.997 3.59 4.393C3.59 4.789 3.689 5.113 3.887 5.365ZM8.693 4.393C8.693 5.455 8.315 6.355 7.559 7.093C6.803 7.813 5.849 8.173 4.697 8.173C3.563 8.173 2.618 7.804 1.862 7.066C1.106 6.328 0.728 5.437 0.728 4.393C0.728 3.331 1.106 2.431 1.862 1.693C2.618 0.954999 3.563 0.585999 4.697 0.585999C5.849 0.585999 6.803 0.954999 7.559 1.693C8.315 2.431 8.693 3.331 8.693 4.393Z" fill="#EC2325"/>
</svg>
