<svg width="21" height="15" viewBox="0 0 21 15" fill="none" xmlns="http://www.w3.org/2000/svg">
<path fill-rule="evenodd" clip-rule="evenodd" d="M13.8549 14.6257C14.2623 15.1182 14.9264 15.1257 15.3401 14.6423L20.6863 8.39231C20.8874 8.15587 21 7.83509 21 7.49925C21 7.16491 20.8874 6.84262 20.6863 6.60769L15.3401 0.357734C14.9264 -0.125696 14.2623 -0.118166 13.8549 0.3743C13.4489 0.866766 13.4552 1.65742 13.8689 2.14085L17.3832 6.24926H1.05C0.469337 6.24926 0 6.80949 0 7.49925C0 8.19051 0.469337 8.74924 1.05 8.74924H17.3832L13.8689 12.8576C13.4552 13.3426 13.4489 14.1332 13.8549 14.6257Z" fill="#51C800"/>
</svg>
