<svg width="27" height="32" viewBox="0 0 27 32" fill="none" xmlns="http://www.w3.org/2000/svg">
<path d="M26.2 8.11251L18.5938 0.750006C18.1313 0.300006 17.5 0.0437561 16.85 0.0437561L2.525 0.0062561C0.7875 0.0062561 -0.625 1.40626 -0.625 3.13126V28.8688C-0.625 30.5625 0.83125 32 2.55625 32H23.7437C25.4375 32 26.8125 30.5938 26.8125 28.8625V9.60626C26.8125 9.02501 26.5938 8.49376 26.2 8.11251ZM18.5625 4.20001L22.4937 8.00001H19.2437C18.8813 8.00001 18.5625 7.71876 18.5625 7.40001V4.20001ZM23.7437 29.5H2.55625C2.20625 29.5 1.875 29.1938 1.875 28.8625V3.13126C1.875 2.80001 2.18125 2.50626 2.525 2.50626L16.0625 2.54376V7.40001C16.0625 9.10626 17.4875 10.5 19.2437 10.5H24.3125V28.8625C24.3125 29.175 24.1 29.5 23.7437 29.5Z" fill="white"/>
</svg>
