<svg width="18" height="12" viewBox="0 0 18 12" fill="none" xmlns="http://www.w3.org/2000/svg">
<g clip-path="url(#clip0_112_2)">
<path d="M9 9.59999C10.864 9.59999 12.375 7.98822 12.375 5.99999C12.375 4.01177 10.864 2.39999 9 2.39999C7.13604 2.39999 5.625 4.01177 5.625 5.99999C5.625 7.98822 7.13604 9.59999 9 9.59999Z" fill="white"/>
<path d="M9 0C3.375 0 0 5.9628 0 5.9628C0 5.9628 3.375 12 9 12C14.625 12 18 6 18 6C18 6 14.625 0 9 0ZM9 10.8C4.07812 10.8 1.40625 6 1.40625 6C1.40625 6 4.07812 1.2 9 1.2C13.9219 1.2 16.5938 6 16.5938 6C16.5938 6 13.9219 10.8 9 10.8Z" fill="white"/>
</g>
<defs>
<clipPath id="clip0_112_2">
<rect width="18" height="12" fill="white"/>
</clipPath>
</defs>
</svg>
