<svg width="22" height="24" viewBox="0 0 22 24" fill="none" xmlns="http://www.w3.org/2000/svg">
<path d="M21.6354 0.231917C21.1218 0.145521 20.494 0.0879245 19.7806 0.0476066L19.598 0.0418469C19.4896 0.0360872 19.3811 0.0303275 19.267 0.0245678H19.2499L18.9759 0.0130484H18.9702C14.005 -0.153983 10.5465 1.33778 10.5465 1.33778C5.83814 3.26152 2.5965 6.70006 1.13548 11.9471C0.661789 13.6463 0.810174 15.4145 1.04987 17.1539C1.07841 17.3152 1.16402 17.5513 1.66624 17.2288C2.66499 14.4757 4.33146 11.9011 6.31183 9.68359C8.81726 6.88437 11.6309 4.65537 15.1179 3.25576C15.7571 2.99657 16.3678 2.80074 17.0184 2.57612C17.0412 2.63371 16.9898 2.69131 16.9385 2.71435C16.9214 2.72011 16.8985 2.72587 16.8814 2.73163C15.0266 3.45159 13.3715 4.52289 11.8306 5.77851C9.23388 7.89808 7.05947 10.4093 5.159 13.1682C2.95605 16.3648 1.18684 19.7803 0.0282996 23.5011C0.0282996 23.5011 -0.177157 24.4284 0.519111 23.7545L3.58954 19.9013C3.62378 19.8322 3.66944 19.7803 3.7208 19.74C3.78358 19.6824 3.86348 19.6421 3.9605 19.6075C5.35875 19.0777 6.77411 18.5938 8.1324 17.9718C9.95868 17.1366 11.6366 16.0941 13.1318 14.7982C13.2973 14.6715 14.9581 13.364 16.7045 10.657C16.733 10.6224 16.7616 10.5821 16.7844 10.536C16.7958 10.5187 16.8072 10.4957 16.8186 10.4784C17.241 9.80454 17.669 9.05002 18.0856 8.2091L14.5643 7.72529C14.5643 7.72529 18.5479 7.15508 19.1357 5.85338C19.17 5.78427 19.2099 5.66331 19.2384 5.58844C19.5466 4.88575 19.8605 4.1082 20.2087 3.46311C20.3171 3.12905 21.1104 1.7064 21.9208 0.871244C22.1148 0.658135 21.9265 0.277995 21.6354 0.231917Z" fill="#0B043A"/>
</svg>
