<svg width="9" height="9" viewBox="0 0 9 9" fill="none" xmlns="http://www.w3.org/2000/svg">
<path d="M8.36332 1.75944L6.6558 1.9062C6.64717 1.90694 6.63894 1.91016 6.6321 1.91548C6.62527 1.92079 6.62011 1.92797 6.61726 1.93615C6.61441 1.94433 6.61399 1.95315 6.61605 1.96156C6.6181 1.96998 6.62255 1.97761 6.62885 1.98356L7.05959 2.3898L6.96397 2.48739L6.90017 2.5525L6.57631 2.88871C6.45152 3.02024 6.32723 3.15208 6.20343 3.28423C6.11475 3.37927 6.02657 3.47488 5.93888 3.57104C5.72896 3.8008 5.52172 4.03317 5.31716 4.26816C5.21538 4.38603 5.11398 4.50446 5.01407 4.6242C4.9875 4.65601 4.96131 4.68819 4.93493 4.72018L4.8281 4.66012L3.16127 3.72315L2.89522 3.57366L2.70457 3.78134L2.46602 4.04121L0.587959 6.08691L0.982356 6.47158L3.0144 4.51063H3.01458L4.20413 5.28446L4.81238 5.68016L5.03297 5.82367L5.08348 5.85641L5.37048 5.60495C5.48798 5.50186 5.60367 5.39709 5.71755 5.29063C5.83186 5.18436 5.94449 5.07678 6.05675 4.96883C6.28089 4.75236 6.50173 4.5329 6.71926 4.31044C6.93778 4.08873 7.15219 3.8631 7.36604 3.63708L7.68429 3.29545L7.72732 3.24849L7.83985 3.12568L8.25112 3.51357C8.25735 3.51944 8.26514 3.52342 8.27356 3.52501C8.28198 3.5266 8.29068 3.52575 8.29863 3.52256C8.30658 3.51937 8.31345 3.51396 8.31843 3.50699C8.32341 3.50001 8.32629 3.49176 8.32672 3.4832L8.41198 1.80643C8.41231 1.80003 8.41126 1.79363 8.4089 1.78767C8.40655 1.78171 8.40295 1.77632 8.39834 1.77187C8.39373 1.76742 8.38821 1.764 8.38217 1.76186C8.37613 1.75972 8.36971 1.75889 8.36332 1.75944Z" fill="#FCAE03"/>
<path d="M0.990921 8.72352C0.990978 8.76243 1.00646 8.79974 1.03398 8.82725C1.06149 8.85477 1.0988 8.87025 1.13771 8.87031H2.15523C2.19415 8.87025 2.23145 8.85477 2.25897 8.82725C2.28649 8.79974 2.30197 8.76243 2.30203 8.72352V5.75452L0.990921 7.01975V8.72352Z" fill="#0B043A"/>
<path d="M2.80912 5.2651V8.72352C2.80918 8.76243 2.82466 8.79974 2.85218 8.82725C2.87969 8.85477 2.917 8.87025 2.95591 8.87031H3.97343C4.01235 8.87025 4.04965 8.85477 4.07717 8.82725C4.10468 8.79974 4.12017 8.76243 4.12022 8.72352V5.70748L3.06316 5.0199L2.80912 5.2651Z" fill="#0B043A"/>
<path d="M5.11974 6.35702L4.62732 6.03725V8.72352C4.62738 8.76243 4.64286 8.79974 4.67038 8.82725C4.69789 8.85477 4.7352 8.87025 4.77411 8.87031H5.79163C5.83055 8.87025 5.86785 8.85477 5.89537 8.82725C5.92288 8.79974 5.93837 8.76243 5.93842 8.72352V5.63208C5.84067 5.72266 5.73842 5.81473 5.6345 5.90598L5.11974 6.35702Z" fill="#0B043A"/>
<path d="M7.00432 4.59151C6.80282 4.79668 6.61866 4.98033 6.44552 5.14931V8.72349C6.44558 8.7624 6.46106 8.79971 6.48857 8.82722C6.51609 8.85474 6.55339 8.87022 6.59231 8.87028H7.60983C7.64875 8.87022 7.68605 8.85474 7.71357 8.82722C7.74108 8.7997 7.75657 8.7624 7.75662 8.72349V3.80518L7.65687 3.91227C7.4502 4.13062 7.22968 4.36298 7.00432 4.59151Z" fill="#0B043A"/>
<path d="M5.08046 2.7859C5.01742 2.83212 4.89999 2.85532 4.72816 2.85551C4.58194 2.85626 4.43635 2.83639 4.29569 2.79646C4.17475 2.76289 4.05689 2.71908 3.94338 2.66552L3.76195 3.15076C3.8548 3.19453 3.94993 3.23328 4.04694 3.26687C4.20872 3.32004 4.37672 3.35197 4.54673 3.36186V3.86393H5.07847V3.34903C5.19969 3.33182 5.31727 3.29481 5.4265 3.23948C5.51403 3.19425 5.59208 3.13266 5.65642 3.05805C5.71377 2.99088 5.75686 2.91275 5.78308 2.82841C5.80818 2.74709 5.82097 2.66247 5.82103 2.57737C5.82356 2.46566 5.80124 2.35478 5.7557 2.25274C5.71247 2.16034 5.65071 2.07781 5.57427 2.01026C5.49117 1.93748 5.39903 1.87573 5.30012 1.82655C5.18853 1.77031 5.07364 1.72087 4.95609 1.67849C4.8745 1.65025 4.80489 1.62419 4.74727 1.60033C4.6967 1.58002 4.64801 1.5553 4.60178 1.52644C4.56638 1.50507 4.53672 1.47541 4.51535 1.44001C4.49607 1.40441 4.48653 1.36436 4.48768 1.3239C4.48697 1.28939 4.49468 1.25522 4.51013 1.22436C4.52559 1.19349 4.54833 1.16685 4.57639 1.14675C4.66399 1.09423 4.76588 1.07058 4.86766 1.07914C4.9975 1.07853 5.12698 1.0927 5.25362 1.12136C5.3639 1.14572 5.47185 1.17961 5.57626 1.22263L5.7072 0.716276C5.62586 0.681616 5.54192 0.653383 5.45617 0.631836C5.33215 0.600718 5.20585 0.57954 5.07847 0.568505V0.129761H4.54673V0.585623C4.43478 0.604068 4.32652 0.640378 4.22608 0.693167C4.14417 0.735737 4.07158 0.794223 4.01255 0.865201C3.95352 0.936179 3.90925 1.01822 3.88233 1.10652C3.85539 1.19325 3.84183 1.28358 3.84211 1.37439C3.83823 1.47478 3.85775 1.57471 3.89914 1.66625C3.94053 1.7578 4.00266 1.83846 4.0806 1.90185C4.15402 1.96186 4.23484 2.0122 4.32108 2.05162C4.4098 2.09241 4.50052 2.12969 4.59323 2.16345C4.6888 2.19739 4.77324 2.22877 4.84655 2.25844C4.90971 2.28298 4.97045 2.31336 5.02798 2.34916C5.07109 2.37584 5.10835 2.41097 5.13753 2.45243C5.16368 2.49331 5.1769 2.54113 5.17547 2.58964C5.17717 2.62767 5.16938 2.66553 5.1528 2.69979C5.13621 2.73406 5.11135 2.76365 5.08046 2.7859Z" fill="#0B043A"/>
</svg>
