<svg width="22" height="22" viewBox="0 0 22 22" fill="none" xmlns="http://www.w3.org/2000/svg">
<g clip-path="url(#clip0_574_366)">
<path d="M11 0C6.41129 0 2.67816 3.73319 2.67816 8.32182C2.67816 10.2145 3.9828 12.9823 6.55576 16.5483C8.41591 19.1263 10.2461 21.1633 10.323 21.2487L11 22.0001L11.6771 21.2487C11.754 21.1633 13.5842 19.1263 15.4443 16.5483C18.0173 12.9823 19.3219 10.2146 19.3219 8.32182C19.3219 3.73319 15.5887 0 11 0ZM11 19.2557C8.70764 16.5758 4.50071 11.0863 4.50071 8.32182C4.50071 4.73814 7.41624 1.82255 11 1.82255C14.5837 1.82255 17.4993 4.73814 17.4993 8.32182C17.4993 11.0863 13.2923 16.5758 11 19.2557Z" fill="#0B043A"/>
<path d="M11 11.341C12.6674 11.341 14.0191 9.98926 14.0191 8.32185C14.0191 6.65444 12.6674 5.30273 11 5.30273C9.33257 5.30273 7.98087 6.65444 7.98087 8.32185C7.98087 9.98926 9.33257 11.341 11 11.341Z" fill="#0B043A"/>
</g>
<defs>
<clipPath id="clip0_574_366">
<rect width="22" height="22" fill="white"/>
</clipPath>
</defs>
</svg>
