<svg width="36" height="36" viewBox="0 0 36 36" fill="none" xmlns="http://www.w3.org/2000/svg">
<path d="M28.7834 1.88251L18.0001 12.6659L7.2167 1.88251C5.80837 0.474178 3.47503 0.524178 2.00003 1.99918C0.525024 3.47418 0.475024 5.80752 1.88336 7.21586L12.6667 17.9992L1.88336 28.7826C0.475024 30.1909 0.525024 32.5242 2.00003 33.9992C3.47503 35.4742 5.80837 35.5242 7.2167 34.1159L18.0001 23.3325L28.7834 34.1159C30.1917 35.5242 32.5251 35.4742 34.0001 33.9992C35.4751 32.5242 35.5251 30.1909 34.1167 28.7826L23.3334 17.9992L34.1167 7.21586C35.5251 5.80752 35.4751 3.47418 34.0001 1.99918C32.5251 0.524178 30.1917 0.474178 28.7834 1.88251Z" fill="white" fill-opacity="0.8"/>
</svg>
