<svg width="34" height="39" viewBox="0 0 34 39" fill="none" xmlns="http://www.w3.org/2000/svg">
<g clip-path="url(#clip0_71_2)">
<path d="M33.2411 7.62443L25.8418 8.26038C25.8044 8.2636 25.7687 8.27756 25.7391 8.30059C25.7095 8.32361 25.6871 8.35472 25.6748 8.39016C25.6625 8.42559 25.6606 8.46384 25.6695 8.50029C25.6784 8.53675 25.6977 8.56984 25.725 8.59559L27.5915 10.356L27.1772 10.7789L26.9007 11.061L25.4974 12.5179C24.9566 13.0879 24.418 13.6592 23.8815 14.2318C23.4973 14.6437 23.1151 15.058 22.7351 15.4747C21.8255 16.4703 20.9275 17.4772 20.041 18.4955C19.6 19.0063 19.1606 19.5195 18.7276 20.0384C18.6125 20.1762 18.499 20.3157 18.3847 20.4543L17.9217 20.194L10.6988 16.1338L9.54593 15.486L8.71978 16.386L7.68608 17.5121L-0.452179 26.3768L1.25687 28.0437L10.0624 19.5462H10.0632L15.2179 22.8995L17.8536 24.6142L18.8095 25.2361L19.0284 25.3779L20.2721 24.2883C20.7812 23.8416 21.2826 23.3876 21.776 22.9263C22.2714 22.4657 22.7595 21.9996 23.2459 21.5318C24.2172 20.5937 25.1741 19.6427 26.1168 18.6788C27.0637 17.718 27.9928 16.7403 28.9195 15.7609L30.2986 14.2805L30.4851 14.077L30.9727 13.5448L32.7548 15.2256C32.7819 15.2511 32.8156 15.2683 32.8521 15.2752C32.8886 15.2821 32.9263 15.2785 32.9607 15.2646C32.9952 15.2508 33.025 15.2274 33.0465 15.1971C33.0681 15.1669 33.0806 15.1311 33.0825 15.094L33.4519 7.82803C33.4533 7.8003 33.4488 7.77258 33.4386 7.74675C33.4284 7.72092 33.4128 7.69757 33.3928 7.67828C33.3728 7.65899 33.3489 7.6442 33.3228 7.63492C33.2966 7.62563 33.2687 7.62205 33.2411 7.62443Z" fill="white"/>
<path d="M1.29401 37.8018C1.29425 37.9705 1.36135 38.1321 1.48058 38.2513C1.59982 38.3706 1.76147 38.4377 1.9301 38.4379H6.33937C6.50799 38.4377 6.66964 38.3706 6.78888 38.2513C6.90812 38.1321 6.97521 37.9705 6.97546 37.8018V24.9362L1.29401 30.4188V37.8018Z" fill="white"/>
<path d="M9.17285 22.8154V37.8018C9.1731 37.9705 9.24019 38.1321 9.35943 38.2513C9.47866 38.3706 9.64031 38.4377 9.80894 38.4379H14.2182C14.3868 38.4377 14.5485 38.3706 14.6677 38.2513C14.787 38.1321 14.8541 37.9705 14.8543 37.8018V24.7323L10.2737 21.7528L9.17285 22.8154Z" fill="white"/>
<path d="M19.1855 27.547L17.0517 26.1614V37.8018C17.0519 37.9705 17.119 38.1321 17.2383 38.2514C17.3575 38.3706 17.5192 38.4377 17.6878 38.4379H22.0971C22.2657 38.4377 22.4273 38.3706 22.5466 38.2514C22.6658 38.1321 22.7329 37.9705 22.7331 37.8018V24.4056C22.3096 24.7981 21.8665 25.1971 21.4162 25.5925L19.1855 27.547Z" fill="white"/>
<path d="M27.3521 19.8966C26.4789 20.7856 25.6809 21.5815 24.9306 22.3137V37.8018C24.9308 37.9704 24.9979 38.1321 25.1171 38.2513C25.2364 38.3706 25.398 38.4377 25.5667 38.4379H29.9759C30.1446 38.4377 30.3062 38.3706 30.4254 38.2513C30.5447 38.1321 30.6118 37.9704 30.612 37.8018V16.4891L30.1798 16.9532C29.2842 17.8994 28.3286 18.9063 27.3521 19.8966Z" fill="white"/>
<path d="M19.0153 12.072C18.7422 12.2723 18.2333 12.3728 17.4887 12.3736C16.8551 12.3769 16.2242 12.2908 15.6147 12.1178C15.0906 11.9723 14.5799 11.7825 14.088 11.5504L13.3018 13.6531C13.7041 13.8427 14.1164 14.0107 14.5367 14.1562C15.2378 14.3866 15.9658 14.525 16.7025 14.5678V16.7435H19.0067V14.5122C19.532 14.4376 20.0415 14.2773 20.5148 14.0375C20.8941 13.8415 21.2323 13.5746 21.5112 13.2513C21.7597 12.9602 21.9464 12.6217 22.06 12.2562C22.1688 11.9038 22.2242 11.5372 22.2244 11.1684C22.2354 10.6843 22.1387 10.2038 21.9414 9.76164C21.754 9.36125 21.4864 9.00361 21.1551 8.7109C20.7951 8.39553 20.3958 8.12796 19.9672 7.9148C19.4836 7.67111 18.9858 7.45687 18.4764 7.27324C18.1228 7.15085 17.8212 7.03794 17.5715 6.93452C17.3524 6.84653 17.1414 6.7394 16.9411 6.61436C16.7877 6.52176 16.6591 6.3932 16.5665 6.2398C16.483 6.08556 16.4416 5.91202 16.4466 5.73669C16.4435 5.58713 16.4769 5.43908 16.5439 5.30533C16.6109 5.17157 16.7094 5.05615 16.831 4.96902C17.2106 4.74144 17.6521 4.63895 18.0932 4.67605C18.6558 4.67341 19.2169 4.73479 19.7657 4.859C20.2435 4.96457 20.7113 5.1114 21.1638 5.29784L21.7312 3.10364C21.3787 2.95345 21.015 2.8311 20.6434 2.73773C20.106 2.60289 19.5587 2.51112 19.0067 2.4633V0.562073H16.7025V2.53747C16.2174 2.6174 15.7482 2.77475 15.313 3.0035C14.9581 3.18797 14.6435 3.44141 14.3877 3.74898C14.1319 4.05655 13.9401 4.41207 13.8234 4.79471C13.7067 5.17052 13.6479 5.56194 13.6492 5.95547C13.6323 6.39051 13.7169 6.8235 13.8963 7.2202C14.0756 7.61691 14.3448 7.96643 14.6826 8.24115C15.0008 8.50118 15.351 8.71929 15.7247 8.89013C16.1091 9.0669 16.5022 9.22843 16.904 9.37471C17.3181 9.52182 17.684 9.65779 18.0017 9.78634C18.2754 9.89271 18.5386 10.0243 18.7879 10.1795C18.9747 10.2951 19.1362 10.4473 19.2626 10.627C19.3759 10.8041 19.4332 11.0113 19.427 11.2215C19.4344 11.3863 19.4007 11.5504 19.3288 11.6989C19.2569 11.8474 19.1492 11.9756 19.0153 12.072Z" fill="white"/>
</g>
<defs>
<clipPath id="clip0_71_2">
<rect width="34" height="39" fill="white"/>
</clipPath>
</defs>
</svg>
