<svg width="88" height="56" viewBox="0 0 88 56" fill="none" xmlns="http://www.w3.org/2000/svg">
<path d="M82.9376 16.1277C83.0144 15.2537 85.5043 14.5931 84.9687 14.0558C84.7819 13.8692 84.5922 13.6908 84.3426 13.6036C84.331 13.2495 83.4823 13.3543 82.4751 13.6183C82.5258 13.3933 82.3829 13.2547 81.7435 13.3346C81.339 13.5573 81.1367 13.6686 81.0058 13.8562C80.8813 13.9854 80.7851 14.0872 80.714 14.1837C80.3273 14.3286 79.9797 14.4684 79.7105 14.5844C79.765 13.7073 82.2166 12.9959 81.6725 12.4697C81.4388 12.2433 81.2052 12.017 80.8517 11.9868L79.8936 12.9121C76.9202 14.0478 80.6638 11.4964 78.449 11.8238C78.0498 12.0577 77.8503 12.1746 77.7333 12.3624C76.9747 13.1707 77.3253 13.2093 78.035 13.2753C75.462 14.6677 75.4793 12.5081 74.1563 13.0351C74.1294 12.9651 74.3117 12.8841 74.4606 12.8055C74.3888 12.757 74.6165 12.6266 74.6606 12.6606C74.6668 12.6161 74.7009 12.572 74.8188 12.5152C74.9943 12.5206 74.7864 12.6346 74.7943 12.6654C74.8731 12.6136 75.0579 12.5522 75.067 12.4993C74.8652 12.5828 75.2023 12.3926 75.0042 12.412C74.9368 12.4445 75.0007 12.4621 74.9107 12.5194C74.8555 12.4768 74.8981 12.4216 74.9742 12.3642C75.1002 12.3242 75.1574 12.4142 75.1907 12.4259C75.2501 12.3626 75.4287 12.3457 75.4834 12.2294C75.3618 12.3503 75.099 12.4078 75.1424 12.297C75.2661 12.2235 75.2256 12.326 75.2761 12.3017C75.327 12.2495 75.5326 12.102 75.5252 12.2301C75.6464 12.1371 75.6077 12.1142 75.516 12.0962C75.6621 12.0119 75.678 12.0734 75.6297 12.1312C75.7058 12.0738 75.7106 12.1268 75.778 12.0944C75.8154 12.0141 75.67 12.0427 75.696 11.9817C75.7633 11.9493 75.7879 11.9858 75.8297 11.9864C75.9338 11.9155 75.9515 11.8516 76.1087 11.7759C76.2416 11.8363 76.308 11.6729 76.4833 11.6922C76.4532 11.6583 76.3943 11.6797 76.476 11.6196C76.5433 11.5871 76.5424 11.6568 76.6097 11.6243C76.5795 11.5904 76.5577 11.5594 76.6224 11.5214C76.6334 11.5299 76.6417 11.5328 76.6641 11.522C76.675 11.5444 76.5937 11.5767 76.6324 11.5995C76.9955 11.3484 77.0743 11.2966 77.3924 11.2678C77.3992 11.1815 77.5926 11.109 77.6988 11.0855C77.6408 11.0512 77.7138 11.016 77.7115 10.9825C77.5708 11.078 77.6084 10.9838 77.5977 10.9475C77.4717 10.9874 77.4347 11.0399 77.2977 11.0713C77.3389 11.1137 77.2127 11.1676 77.1787 11.2117C77.1344 11.1916 77.0645 11.2045 77.0032 11.2064C77.0165 11.2484 76.8084 11.3764 76.7722 11.3731C76.7757 11.3229 77.008 11.2594 76.9167 11.2135C76.7953 11.3204 76.7682 11.2643 76.8557 11.1875C76.4487 11.3906 76.4684 11.3742 76.1367 11.5756C76.098 11.5528 76.1715 11.4758 76.1075 11.4721C76.1115 11.5809 75.8326 11.5907 75.6811 11.6638C75.7233 11.6365 75.799 11.607 75.7938 11.5818C75.7216 11.5613 75.7067 11.6307 75.6401 11.6075C75.6879 11.5775 75.6266 11.5794 75.5873 11.5983C75.5668 11.6705 75.6002 11.6682 75.5884 11.7154C75.3077 11.8507 74.8647 12.0366 74.6709 11.9501C74.8301 11.9218 74.9018 11.7835 75.0973 11.7584C75.0615 11.7273 75.1315 11.7004 75.0762 11.6718C74.866 11.7523 74.7396 11.8202 74.5016 11.9003C74.5244 11.8616 74.5107 11.8475 74.4406 11.8743C74.4488 11.8912 74.454 11.9163 74.4008 11.9351C74.4236 11.8964 74.4099 11.8822 74.3398 11.9091C74.3758 11.9263 74.2265 12.0329 74.1935 12.0073C74.3706 11.9012 74.1587 11.9065 74.2715 11.8106C74.4204 11.7319 74.4103 11.8544 74.467 11.7855C74.4167 11.796 74.4595 11.7269 74.3643 11.759C74.4094 11.7234 74.4946 11.6131 74.5697 11.6254C74.5242 11.6888 74.6159 11.7069 74.6915 11.6773C74.583 11.6674 74.6033 11.6091 74.6096 11.5646C74.7528 11.4887 74.9216 11.3796 74.985 11.4252C74.9512 11.4553 74.9451 11.4859 74.967 11.5169C75.093 11.4769 74.9512 11.4553 75.0325 11.4231C75.0747 11.3958 75.1503 11.3663 75.1451 11.3411C75.0559 11.3426 75.0266 11.4397 74.9715 11.3971C75.0865 11.3486 75.0758 11.3122 75.1769 11.2635C75.1985 11.3084 75.2771 11.2705 75.2987 11.3154C75.2006 11.3558 75.3005 11.3907 75.3061 11.388C75.2813 11.3654 75.5198 11.2574 75.3715 11.2942C75.3796 11.3111 75.3318 11.341 75.3098 11.324C75.3603 11.2996 75.2994 11.2737 75.3416 11.2464C75.4002 11.2389 75.4817 11.1927 75.5289 11.2045C75.548 11.2299 75.4445 11.259 75.4553 11.2815C75.5639 11.2914 75.6625 11.0225 75.7809 11.1246C75.7414 11.1574 75.6071 11.1945 75.6345 11.2228C75.7684 11.2136 75.8564 11.109 76.01 11.0833C75.9769 11.0577 75.983 11.0272 76.0281 10.9916C76.0553 11.0338 76.1954 10.9801 76.2353 10.9194C76.3274 10.9095 76.2429 10.978 76.3181 10.9763C76.3077 10.926 76.4844 10.8477 76.4763 10.8309C76.437 10.8498 76.3977 10.8688 76.3954 10.8353C76.4297 10.7773 76.485 10.8059 76.5835 10.7377C76.5677 10.6761 76.4324 10.7829 76.3881 10.7627C76.576 10.679 76.3862 10.7014 76.3862 10.7014C76.4238 10.6072 76.5739 10.6316 76.6153 10.6601C76.5406 10.62 76.6398 10.51 76.4997 10.5637C76.4985 10.6473 76.3654 10.6007 76.2997 10.7085C76.2891 10.6721 76.2558 10.6605 76.197 10.6819C76.1402 10.7508 76.2941 10.7112 76.1843 10.7848C75.9068 10.8979 76.0075 10.6764 76.215 10.5902C76.1173 10.6027 76.134 10.6085 76.0159 10.6793C76.0899 10.5744 75.9323 10.6781 75.8822 10.6746C75.9362 10.6001 76.2077 10.5177 76.1948 10.4478C75.9954 10.5508 75.8183 10.6569 75.7148 10.6861C75.7376 10.6474 75.7688 10.6116 75.8166 10.5817C75.8193 10.5873 75.8193 10.5872 75.822 10.5929C76.1251 10.4468 76.4673 10.2957 76.8291 10.1421C76.8262 10.1504 76.8149 10.1558 76.812 10.1641C76.8513 10.1452 76.8906 10.1262 76.8929 10.1597C76.9661 10.1106 77.0311 10.0447 77.0665 10.1037C76.8985 10.157 77.1251 10.0962 77.1156 10.1769C77.1578 10.1496 77.2335 10.12 77.2283 10.0949C77.0318 10.1896 77.3833 9.97173 77.221 10.0223C77.2343 10.0643 77.1002 10.0875 77.1064 10.043C77.2721 9.95619 77.3524 9.99357 77.501 9.92884C77.4819 9.90348 77.5018 9.87313 77.5357 9.84296C77.7376 9.75949 77.9338 9.67869 78.1328 9.60354C78.144 9.59813 78.1636 9.59563 78.1665 9.58731C78.4804 9.46366 78.7887 9.34275 79.0746 9.23263C79.0434 9.26841 78.99 9.30107 79.0174 9.32934C79.085 9.28294 79.1301 9.24736 79.1585 9.20597C79.265 9.16849 79.3744 9.12268 79.4752 9.08791C79.6467 8.9845 79.793 8.8863 79.9338 8.7908C79.9473 8.81886 79.975 8.83319 80.0112 8.8365C80.0477 8.81195 80.101 8.79323 80.0958 8.76807C80.0284 8.80054 79.9953 8.77497 79.9479 8.77707C80.1618 8.63246 80.3476 8.50138 80.4915 8.38363C80.4971 8.38093 80.5027 8.37822 80.511 8.38113C80.5083 8.37551 80.5168 8.36452 80.5225 8.36181C80.5478 8.34267 80.5788 8.32079 80.6014 8.29604C80.6127 8.29063 80.6156 8.28231 80.6212 8.27961C80.9456 8.00562 81.0878 7.81259 81.0898 7.67327C81.1179 7.65975 81.1487 7.65184 81.1852 7.62729C81.18 7.60213 81.2222 7.57489 81.217 7.54974C81.1663 7.58802 81.1297 7.61255 81.0904 7.63149C81.0673 7.49738 80.9011 7.42529 80.6366 7.40752C80.9171 7.28618 81.1927 7.11181 81.4366 7.01501C81.4667 7.04889 81.5256 7.02745 81.4857 7.08818C81.5763 6.98917 81.7395 6.88285 81.8848 6.8543C81.8519 6.81481 81.9334 6.76862 82.0093 6.72513C82.0201 6.74758 81.9808 6.76651 82.0112 6.78646C82.0561 6.76481 82.0732 6.74276 82.0958 6.71801C82.1096 6.73215 82.0842 6.75128 82.084 6.76521C82.1603 6.69386 82.2686 6.71772 82.2694 6.662C82.2274 6.67532 82.191 6.68595 82.1549 6.68264C82.2166 6.65287 82.2114 6.62774 82.2675 6.60068C82.2636 6.67866 82.3765 6.58275 82.3813 6.63577C82.4636 6.53385 82.5114 6.50389 82.6877 6.4535C82.6546 6.42793 82.655 6.40003 82.7057 6.36175C82.6679 6.46989 82.9685 6.30427 83.0057 6.23793C83.0222 6.25767 83.0107 6.27703 83.0076 6.29928C83.2045 6.17672 83.4122 6.0766 83.6022 6.04034C83.5361 5.98922 83.7743 5.89512 83.8612 5.86015C83.8581 5.8824 83.8521 5.91298 83.8294 5.93773C83.8527 5.87118 83.6646 5.96877 83.6949 5.98872C83.8664 5.8853 83.8401 5.9741 83.9041 5.97782C83.945 5.84743 83.9893 5.86756 83.8677 5.8017C83.7749 5.8533 83.5188 6.02519 83.534 5.9418C83.5837 5.97318 83.5653 5.89211 83.6186 5.87337C83.7616 5.81135 83.745 5.8055 83.8795 5.75449C83.8491 5.73455 83.9025 5.7019 83.9113 5.67695C83.8495 5.70671 83.8532 5.64266 83.783 5.68344C83.8375 5.76784 83.4884 5.81851 83.3776 5.96182C83.4211 6.0377 82.9521 6.28452 82.793 6.29894C82.9253 6.21446 83.0122 6.17949 83.0658 6.1329C83.0153 6.15724 83.0161 6.10151 82.9712 6.12315C82.929 6.15041 82.7604 6.2455 82.813 6.26856C82.724 6.25612 82.6475 6.34141 82.572 6.35704C82.6442 6.37759 82.5228 6.48454 82.4785 6.4644C82.4983 6.44796 82.5375 6.42901 82.5321 6.41778C82.1352 6.49843 81.8293 6.83958 81.4694 6.86781C81.4016 6.92814 81.5494 6.91911 81.4904 6.95449C81.2897 6.95437 81.0574 7.21855 80.7813 7.23406C80.7894 7.2509 80.8142 7.27353 80.7832 7.29538C80.7443 7.28645 80.6293 7.33497 80.5505 7.38678C80.4809 7.38577 80.4085 7.37913 80.3276 7.38353C80.4399 7.32942 80.5736 7.33416 80.6276 7.25969C80.5891 7.22291 80.3816 7.30907 80.3137 7.38333C79.2291 7.41499 77.2964 7.89699 76.3747 8.22364C76.3808 8.19307 76.3924 8.1598 76.404 8.12652C76.4572 8.10779 76.5132 8.09464 76.5664 8.07591C76.556 8.0256 76.4602 8.09947 76.4101 8.09596C76.4159 8.07932 76.4217 8.06266 76.4302 8.05163C76.4807 8.02729 76.5285 7.99733 76.579 7.97298C76.5952 8.00665 76.6229 8.02102 76.6818 7.99957C76.5609 7.87798 77.2241 7.68971 77.3189 7.49878C77.3185 7.52664 77.2985 7.55702 77.3008 7.59049C77.3598 7.55512 77.3763 7.57486 77.4153 7.56985C77.4775 7.51223 77.3264 7.55741 77.4081 7.49728C77.5401 7.42674 77.4894 7.46501 77.4609 7.5064C77.5983 7.44708 77.4679 7.4062 77.6054 7.34688C77.6484 7.45062 77.7656 7.24887 77.8345 7.3056C77.8694 7.20578 77.9916 7.22983 78.1153 7.15638C78.1221 7.07009 77.9496 7.24317 77.928 7.19826C77.9729 7.17662 77.9369 7.15937 77.9679 7.13752C77.904 7.11987 77.8599 7.0858 77.7732 7.10684C77.8388 7.19976 77.6668 7.14432 77.6069 7.23542C77.6213 7.20776 77.6102 7.19924 77.5907 7.20175C78.2085 6.87627 78.7811 6.60031 78.5123 6.301C78.5013 6.29248 78.4959 6.28126 78.4848 6.27274C78.5212 6.26212 78.5576 6.25148 78.5911 6.24918C78.5638 6.20698 78.5158 6.25089 78.5501 6.19286C78.522 6.20639 78.4857 6.21698 78.441 6.2247C78.4245 6.20495 78.3997 6.18231 78.3833 6.16256C78.434 6.12428 78.4679 6.09412 78.4517 6.06044C78.4207 6.08228 78.3898 6.10411 78.3532 6.12866C78.2516 6.0185 78.1387 5.92771 78.0116 5.85062C78.0395 5.85102 78.0674 5.85143 78.0896 5.85454C78.1403 5.81625 78.2133 5.78109 78.2278 5.73949C78.1212 5.7909 78.0716 5.74558 77.9509 5.81071C77.8872 5.77914 77.8151 5.75857 77.7373 5.74072C78.035 5.58339 78.3501 5.37617 78.6048 5.30183C78.5375 5.3343 78.5499 5.2453 78.4911 5.26674C78.4169 5.3855 78.2487 5.45274 78.1038 5.45343C77.9344 5.60425 77.5697 5.76617 77.3702 5.88311C77.3015 5.81244 77.0042 5.9419 77.0081 5.86392C76.9156 5.90159 76.7718 6.01938 76.7135 5.99903C76.8006 5.95013 76.7734 5.90792 76.8326 5.85862C76.7486 5.88527 76.6731 5.90089 76.558 5.96331C76.5334 5.92673 76.5842 5.88844 76.4833 5.92321C76.2362 6.05619 75.9661 6.22785 75.6588 6.27914C75.6929 6.23504 75.727 6.19094 75.7584 6.14123C75.8286 6.10045 75.9043 6.07088 75.9467 6.02969C75.804 6.06385 76.0956 5.95105 76.0513 5.9309C75.9615 5.97418 75.9154 5.87877 75.983 5.83237C76.0614 5.80843 76.1171 5.80921 76.1385 5.86805C76.2144 5.82456 76.2959 5.77837 76.2631 5.73888C76.0997 5.85913 76.1747 5.68465 76.1156 5.72002C76.1152 5.74789 76.0896 5.78095 76.0501 5.81382C76.031 5.78846 76.0002 5.79637 75.9778 5.80719C76.0094 5.74355 76.0297 5.68534 76.0332 5.63522C76.0927 5.57199 76.1577 5.50602 76.2336 5.46253C76.2201 5.43447 76.1924 5.42013 76.159 5.42243C76.4263 5.24515 76.6778 5.00633 76.8726 5.02309C76.9711 4.95484 77.1784 4.8826 77.2044 4.82167C77.0867 4.86455 77.0347 4.7997 76.9642 4.85442C77.0601 4.78056 77.1141 4.70609 77.1542 4.63143C77.2151 4.65739 77.387 4.52612 77.4679 4.52172C77.5149 4.54748 77.3137 4.58915 77.3634 4.62053C77.7547 4.5426 78.2841 4.16288 78.6644 4.07643C78.627 4.1567 78.3619 4.18074 78.3717 4.27285C78.517 4.2443 78.6607 4.1405 78.8536 4.09592C78.9143 4.13582 78.8495 4.18782 78.7345 4.23632C78.6744 4.15462 78.2832 4.41928 78.3526 4.2475C78.2256 4.35714 78.0485 4.46326 77.9062 4.46956C77.8499 4.51055 77.9191 4.53941 77.8127 4.57688C77.7823 4.55693 77.8357 4.52429 77.8445 4.49934C77.7169 4.65077 77.1 4.90656 76.9273 5.09357C76.9026 5.07092 76.8749 5.05659 76.8246 5.06701C76.8267 5.11442 76.7452 5.16063 76.7529 5.20533C76.86 5.12606 76.8731 5.18195 76.9403 5.16341C76.935 5.13826 77.062 5.02864 77.1203 5.04899C77.1533 5.07456 77.0413 5.11474 77.0548 5.14281C77.0829 5.12928 77.1166 5.11302 77.1276 5.12154C77.1078 5.13798 77.0686 5.15693 77.074 5.16816C77.2199 5.09781 77.3313 4.91271 77.4731 4.93427C77.3442 4.98257 77.444 5.01746 77.3877 5.05845C77.2226 5.10343 77.0222 5.27608 76.9686 5.32268C77.1598 5.20283 77.1861 5.31472 77.3233 5.26933C77.219 5.35421 77.237 5.26248 77.1441 5.32802C77.1762 5.42323 77.2907 5.40262 77.3997 5.38469C77.3071 5.42236 77.3598 5.44543 77.3342 5.4785C77.4348 5.45766 77.5926 5.34012 77.5434 5.4676C77.6388 5.42161 77.7769 5.32047 77.818 5.36287C77.7781 5.42361 77.5513 5.49836 77.6062 5.55489C78.0338 5.09288 78.5231 5.36196 78.9609 4.96421C78.968 5.0507 79.0775 4.99096 79.1501 4.98365C79.1323 5.06143 79.078 5.14985 79.0211 5.23263C78.9402 5.23703 78.9425 5.27047 78.8666 5.31396C78.7604 5.3375 78.8369 5.25223 78.7329 5.30925C78.7464 5.33731 78.7741 5.35164 78.8076 5.34934C78.6698 5.43652 78.6084 5.43844 78.3812 5.54105C78.3634 5.61883 78.2735 5.66209 78.3567 5.69117C78.5565 5.56029 78.6789 5.57045 78.8348 5.39156C78.7781 5.46041 79.0341 5.48921 79.044 5.38066C78.9935 5.40501 78.9315 5.44869 78.9095 5.43164C78.8987 5.40919 78.86 5.38635 78.9022 5.35909C79.0423 5.30539 79.0884 5.20013 79.1431 5.2706C79.0901 5.2754 79.0115 5.31331 79.0305 5.3526C79.14 5.29288 79.044 5.38064 79.1588 5.34607C79.2101 5.266 79.4546 5.12741 79.566 5.12903C79.5742 5.14587 79.5879 5.16002 79.5933 5.17125C79.4338 5.21353 79.4341 5.38632 79.4551 5.28629C79.7127 5.20363 79.7348 5.02 79.7385 4.95595C79.8229 4.90144 79.8049 4.99313 79.8722 4.96066C79.8371 4.88769 79.9972 4.80364 80.0512 4.72918C80.0061 4.76476 79.909 4.73549 79.9765 4.68909C80.1894 4.61415 80.5495 4.38525 80.7366 4.35731C80.7277 4.39619 80.6599 4.45651 80.7776 4.41363C80.7206 4.30968 81.0607 4.2979 81.1093 4.21221C81.0991 4.14796 80.9665 4.2603 80.9619 4.19335C81.1301 4.12611 81.0278 4.07169 81.1263 4.00345C81.291 3.98633 81.6872 3.76074 81.7945 3.66754C81.7084 3.64679 81.6313 3.77387 81.5454 3.73918C81.5796 3.68116 81.5218 3.63295 81.5561 3.57492C81.626 3.562 81.7725 3.44985 81.8151 3.39473C81.6862 3.44302 81.6305 3.44223 81.7405 3.35464C81.4629 3.46767 81.3467 3.59975 81.0523 3.7209C81.0659 3.74896 81.0655 3.77681 81.0343 3.81259C80.9983 3.79535 80.8855 3.89126 80.8607 3.8686C80.8281 3.81518 81.038 3.74855 80.9997 3.69783C80.9016 3.73822 80.6562 3.94647 80.6324 3.85416C80.5763 3.88121 80.5284 3.91116 80.4723 3.93821C80.5574 4.02863 80.1063 4.19767 80.1723 4.06207C80.0154 4.12389 79.8042 4.27413 79.744 4.19243C79.9596 4.1231 80.1031 4.03321 80.2359 3.90694C80.1714 3.93109 80.1496 3.90009 80.0623 3.96292C80.1093 3.98868 80.0168 4.02637 79.9968 4.05673C79.9638 4.03117 79.8511 4.11316 79.8095 4.09862C79.802 4.03999 79.7261 4.08346 79.6957 4.06351C79.8117 3.94535 80.0184 3.91492 80.1558 3.8556C80.1317 3.79115 79.9678 3.93926 79.9267 3.89686C79.9075 3.8715 80.0111 3.84234 80.0002 3.81989C79.9447 3.80515 79.7838 3.94497 79.7256 3.92462C79.7877 3.86699 79.9308 3.80496 79.9037 3.74883C80.0214 3.70595 80.1304 3.688 80.2393 3.67007C80.1393 3.64911 80.3501 3.52678 80.3236 3.42885C80.2074 3.56094 80.0348 3.74795 79.8318 3.71435C79.6882 3.81817 79.441 3.95115 79.31 3.95203C79.3777 3.8917 79.4342 3.83677 79.449 3.78124C79.3406 3.75738 79.2347 3.95373 79.1035 3.96855C79.1401 3.944 79.1738 3.92776 79.1434 3.90781C79.048 3.9538 79.053 3.99289 79.0189 4.03698C78.9544 4.06113 78.8124 4.0535 78.8833 3.97092C79.3091 3.82102 79.6246 3.58594 80.0835 3.4616C79.8554 3.61994 79.5178 3.65125 79.4652 3.81492C79.5868 3.69406 79.6975 3.7514 79.738 3.64888C79.8891 3.60369 79.9553 3.65482 80.0598 3.556C79.9557 3.62696 80.0016 3.53565 80.0326 3.5138C80.1446 3.47362 80.1361 3.48464 80.2735 3.42532C80.2441 3.33571 80.5523 3.22869 80.5034 3.14159C80.2546 3.38602 79.8606 3.45836 79.5614 3.52648C79.4907 3.59513 79.6585 3.55577 79.5824 3.6132C79.5348 3.62923 79.4874 3.63132 79.4541 3.61969C79.4948 3.50323 79.399 3.57708 79.2657 3.5445C79.4235 3.42695 79.416 3.55504 79.5339 3.49822C79.6071 3.44912 79.6842 3.32205 79.7538 3.32306C79.7703 3.3428 79.7058 3.36694 79.714 3.38378C79.7672 3.36505 79.8063 3.36003 79.8622 3.34691C79.8291 3.32135 79.8351 3.29079 79.8802 3.25522C79.9518 3.31757 80.0603 3.32749 80.2231 3.24903C80.2152 3.21826 80.1481 3.23677 80.1959 3.20681C80.3273 3.17805 80.5042 3.0859 80.6241 3.07649C80.6503 3.00162 80.7674 3.00052 80.8551 2.90982C80.8959 2.98009 81.1332 2.75499 81.1769 2.81693C81.1771 2.80301 81.1913 2.78928 81.2306 2.77034C81.1744 2.61067 80.7765 2.94769 80.6349 2.91219C80.8172 2.83123 80.7282 2.81882 80.633 2.85088C80.8311 2.64473 81.2233 2.69779 81.1858 2.59134C81.27 2.55076 81.5268 2.52383 81.4658 2.49787C81.3062 2.55408 81.4324 2.50015 81.3831 2.44091C81.3275 2.42617 81.2082 2.58051 81.1221 2.55975C81.1113 2.5373 81.3414 2.42637 81.2267 2.46094C81.0945 2.54542 81.1003 2.52877 81.0267 2.60574C80.9681 2.61325 80.9379 2.57937 80.8793 2.58688C80.8342 2.62246 80.9396 2.65465 80.8275 2.69482C80.6761 2.56722 80.3234 2.86868 80.0974 2.8877C80.5083 2.6066 80.9511 2.43465 81.2574 2.2663C81.2237 2.28253 81.199 2.25986 81.2355 2.23531C81.2692 2.21908 81.2973 2.20555 81.3282 2.1837C81.3389 2.22009 81.3749 2.23733 81.411 2.24065C81.51 2.14454 81.5649 2.20108 81.6911 2.14717C81.9052 1.98863 82.5336 1.69953 82.7576 1.6331C82.9147 1.55735 83.4432 1.24732 83.6659 1.26448C83.6551 1.24203 83.6163 1.21915 83.6586 1.19189C83.8294 1.13027 84.334 0.928587 84.3396 0.92588C84.3456 0.895312 84.2762 0.880367 84.3323 0.853312C84.4051 0.832074 84.4436 0.868862 84.5078 0.858646C84.6051 0.687266 84.9082 0.727874 85.0724 0.551892C84.9867 0.50327 84.9184 0.605397 84.946 0.619733C84.8872 0.641175 84.8113 0.684674 84.7668 0.678454C84.8989 0.607908 84.7504 0.658702 84.7396 0.63625C84.7737 0.592152 84.8073 0.575918 84.866 0.568409C84.7896 0.453038 84.5236 0.733447 84.3859 0.806702C84.2315 0.88807 84.2308 0.743148 84.0649 0.843858C84.0755 0.880243 84.129 0.847581 84.1596 0.853597C84.0328 0.949302 83.875 1.06683 83.7413 1.0621C83.8454 0.99115 83.7256 0.986637 83.6385 1.03554C83.6013 1.10188 83.5371 1.11212 83.4523 1.1945C83.4874 1.08075 83.2531 1.28357 83.3304 1.14255C83.1647 1.22934 83.3015 1.21181 83.2113 1.28296C83.0861 1.26722 83.2167 1.29421 83.0987 1.36495C83.06 1.3421 82.9841 1.38557 83.024 1.32483C82.8417 1.4058 82.7706 1.50233 82.6167 1.5419C82.5995 1.57788 82.5962 1.61406 82.565 1.64984C82.4222 1.69794 82.2877 1.74893 82.1049 1.85776C82.0425 1.74258 81.5762 1.995 81.3756 1.99488C81.3837 2.01172 81.4084 2.0344 81.3775 2.05625C81.2933 2.09683 81.25 2.00701 81.1901 2.09811C81.2004 2.16236 81.333 2.05002 81.3376 2.11697C81.18 2.22059 80.9181 2.40911 80.7193 2.47032C80.8397 2.43305 80.8636 2.3247 80.8048 2.34615C80.7453 2.40939 80.7193 2.47029 80.5929 2.53813C80.6102 2.50215 80.5883 2.47121 80.6056 2.43524C80.4261 2.50788 80.2682 2.63935 80.1337 2.69035C80.1312 2.6708 80.1538 2.64604 80.1736 2.6296C80.3873 2.49893 80.7875 2.3821 80.8536 2.2465C80.6453 2.3884 80.3153 2.46447 80.059 2.65026C80.0128 2.56877 79.6541 2.90075 79.5043 2.84842C79.225 3.08683 78.6111 3.33435 78.337 3.39727C78.3568 3.38083 78.3626 3.3642 78.3489 3.35007C78.2674 3.39626 78.2054 3.43996 78.1826 3.47865C78.2218 3.45971 78.2611 3.44077 78.2634 3.47424C78.0443 3.59369 77.9718 3.601 77.8425 3.67716C77.8429 3.6493 77.8628 3.61893 77.8605 3.58545C77.6832 3.7055 77.6368 3.63793 77.4678 3.7609C77.5119 3.79498 77.599 3.7461 77.5169 3.83409C77.4952 3.78918 77.4052 3.84638 77.3495 3.84557C77.3069 3.90069 77.4466 3.87485 77.3369 3.94851C77.1265 4.043 77.1373 4.06545 76.9377 4.18239C76.9136 4.11794 76.7113 4.22928 76.7685 4.13256C76.572 4.22726 76.4969 4.21502 76.4367 4.33399C76.4516 4.26453 76.3311 4.31572 76.3938 4.2163C76.3321 4.24606 76.3373 4.27125 76.2811 4.29831C76.3198 4.32116 76.4088 4.33358 76.3103 4.40183C75.9486 4.55544 75.4835 4.72427 75.2966 4.92501C75.2775 4.89965 75.2723 4.87451 75.2893 4.85246C75.2332 4.87951 75.1854 4.90948 75.1293 4.93653C75.1763 4.9623 75.1507 4.99534 75.0638 5.03031C75.0987 4.93049 74.9773 5.03744 74.9419 4.9784C75.0606 4.86586 75.2168 4.85975 75.4101 4.78731C75.4259 4.66213 75.8576 4.48168 75.9437 4.50244C75.7518 4.47736 75.2884 4.72145 75.17 4.82006C74.9517 4.88378 74.756 4.92277 74.5007 5.0389C74.5477 5.06467 74.4552 5.10233 74.4352 5.1327C74.4428 5.19134 74.5187 5.14786 74.5291 5.19817C74.6607 5.15549 74.5635 5.12622 74.6673 5.08313C74.6715 5.17795 74.8238 5.04917 74.8366 5.13295C74.6823 5.20039 74.428 5.24685 74.4293 5.34999C74.3732 5.37704 74.3254 5.40702 74.2748 5.43137C74.2921 5.39539 74.2703 5.3644 74.2875 5.32842C74.1023 5.4177 74.373 5.39099 74.1821 5.48298C74.104 5.49299 74.0738 5.4591 74.0476 5.53396C73.9166 5.53485 74.0576 5.42542 73.9794 5.43544C73.9929 5.4635 73.7823 5.57193 73.7603 5.55489C73.7272 5.52933 73.7332 5.49877 73.7783 5.46319C73.7769 5.56071 73.961 5.35435 74.0592 5.31397C74.1093 5.31748 74.1395 5.35136 74.2066 5.33283C74.1687 5.25424 74.3725 5.23212 74.4257 5.21338C74.3321 5.13399 74.166 5.24865 74.0847 5.28091C74.0492 5.23581 74.1889 5.20993 74.2038 5.14047C74.0828 5.21954 73.9781 5.33229 73.8783 5.2974C73.8916 5.33939 73.6454 5.40275 73.7592 5.43784C73.8627 5.40869 73.892 5.31155 73.9446 5.33461C73.8619 5.46439 73.7369 5.4347 73.6109 5.47468C73.6072 5.53873 73.7203 5.42891 73.7137 5.50128C73.68 5.51751 73.6881 5.53433 73.66 5.54785C73.4915 5.64296 73.4471 5.62282 73.2935 5.64846C73.2091 5.70298 73.3604 5.64387 73.3544 5.67444C73.3095 5.69608 73.2925 5.71811 73.2698 5.74287C73.2139 5.75599 73.1551 5.77745 73.1361 5.73816C73.1004 5.70698 73.2515 5.66176 73.1879 5.63018C73.0725 5.70654 73.0359 5.73112 72.927 5.74906C72.8677 5.79836 72.9145 5.83806 72.8079 5.88947C72.7405 5.92193 72.716 5.88534 72.6542 5.9151C72.6201 5.9592 72.4484 6.07652 72.2806 6.1159C72.2688 6.1631 72.2012 6.2095 72.1615 6.25631C72.3241 6.19178 72.3726 6.12003 72.4616 6.13247C72.4277 6.16263 72.405 6.18738 72.388 6.20943C72.4666 6.17155 72.4699 6.13537 72.5262 6.09438C72.5497 6.20063 72.731 6.00259 72.7753 6.02274C72.7805 6.0479 72.7522 6.07536 72.7826 6.09531C72.9378 5.95821 73.205 5.79487 73.3691 5.81954C73.2753 5.75408 73.6896 5.62354 73.5901 5.76144C73.7558 5.67466 73.6189 5.6922 73.7091 5.62105C73.7395 5.641 73.804 5.61685 73.8229 5.65614C73.5855 5.88122 73.3677 5.91708 73.0629 5.98791C72.8851 6.13582 72.7874 6.14833 72.6774 6.23592C72.6637 6.22179 72.6556 6.20493 72.6446 6.19641C72.655 6.24672 72.3045 6.39493 72.4328 6.38843C72.4756 6.31937 72.6914 6.23613 72.7328 6.2646C72.5388 6.37884 72.413 6.40489 72.2191 6.51913C72.234 6.44967 72.1806 6.48234 72.1053 6.48404C72.1409 6.52914 72.0958 6.5647 72.0453 6.58906C71.6873 6.29124 71.3565 6.03561 70.7229 6.29955C69.7762 6.81813 69.6726 7.23469 69.7927 7.59872C69.6383 7.6801 69.4811 7.75582 69.3805 7.77666C69.3127 7.83699 69.0934 7.97039 68.8772 8.08152C67.2879 7.94143 64.5567 8.51774 62.3592 9.38328C61.2398 10.0889 59.9373 10.5438 58.5762 11.0062C58.6633 10.9573 58.7707 10.8502 58.7665 10.7553C58.7627 10.6327 58.9145 10.5457 59.077 10.4812C59.1527 10.4516 59.2311 10.4276 59.3095 10.4037C59.6902 10.2894 59.7854 10.2573 59.7907 10.0818C59.8079 9.85911 60.0503 9.85983 60.1913 9.7504C60.4027 9.58625 60.8153 9.38042 60.6289 9.16592C60.5961 9.12642 60.6786 9.01056 60.7299 8.93048C60.787 8.83377 60.7489 8.76913 60.6599 8.7567C60.4069 8.71958 60.1397 8.69618 59.8639 8.68382C59.772 8.6797 59.6377 8.71676 59.5257 8.75694C59.2903 8.84271 59.0519 8.95077 58.8219 9.04777C58.5724 8.96054 58.3384 9.33615 58.0938 9.28801C57.7137 9.56119 57.2837 9.61629 56.883 9.76098C56.6701 9.83593 56.436 9.83809 56.1976 9.94611C55.9674 10.057 55.7154 10.137 55.499 10.2621C55.2629 10.4036 55.0524 10.3113 54.8466 10.4728C54.7564 10.5439 54.6856 10.6265 54.5917 10.5611C54.509 10.5041 54.6056 10.3745 54.7908 10.2852C55.0629 10.161 55.3351 10.0367 55.6045 9.90688C55.6775 9.87171 55.7758 9.81737 55.8043 9.77598C55.8643 9.67094 55.6965 9.71035 55.6554 9.66795C55.5701 9.59146 55.5216 9.47648 55.3968 9.43286C55.2471 9.38053 55.1308 9.3259 55.2642 9.15783C55.3721 9.02283 55.2485 8.89561 55.4649 8.77055C55.5942 8.69439 55.8158 8.59449 55.8992 8.60963C56.0076 8.6335 55.8336 8.71738 55.7519 8.77751C55.7068 8.81309 55.6893 8.86299 55.6609 8.90438C55.9208 8.85519 56.1886 8.83679 56.4491 8.74581C56.7599 8.64441 57.0744 8.47899 57.3856 8.34973C57.4193 8.3335 57.4582 8.34242 57.4944 8.34573C57.4603 8.38982 57.44 8.44804 57.395 8.46969C57.1676 8.58623 56.9348 8.69155 56.7019 8.79686C56.5645 8.85618 56.4741 8.94127 56.4731 9.01093C56.4717 9.10846 56.4863 9.25358 56.6401 9.214C56.9144 9.13716 57.1359 9.23792 57.4169 9.07478C57.7373 8.89269 58.0299 8.89693 58.3378 8.80385C58.6877 8.69745 59.0229 8.44591 59.3851 8.45116C59.3935 8.45407 59.4471 8.40747 59.4529 8.39084C59.4564 8.34072 59.4853 8.27146 59.4437 8.25692C59.3718 8.22243 59.2688 8.20979 59.1601 8.21379C58.9844 8.22239 58.1436 8.54465 57.8657 8.68554C57.8264 8.70448 57.7598 8.68123 57.7126 8.66939C57.6877 8.66067 57.6741 8.63258 57.6828 8.60762C57.7238 8.47723 57.773 8.34975 57.8195 8.21666C57.8486 8.13347 57.9384 8.09018 57.9796 8.13258C58.0921 8.25126 58.2591 8.26761 58.5316 8.11549C58.9362 7.89283 59.2917 7.78372 59.5145 7.9876C60.0225 7.93644 60.519 7.90463 61.0735 7.72037C61.1435 7.69351 61.2306 7.64462 61.2703 7.59782C61.31 7.55102 61.3221 7.48988 61.3058 7.4562C61.2869 7.41691 61.2372 7.38554 61.1759 7.38743C60.9696 7.39002 60.7519 7.41195 60.5398 7.43117C60.4784 7.24634 60.1638 7.41179 59.9715 7.41458C59.8014 7.42047 59.5946 7.46484 59.4527 7.44327C59.3415 7.42773 59.2986 7.31005 59.1344 7.48603C58.9475 7.68677 58.6095 7.74597 58.4251 7.96625C58.3372 8.07088 58.2661 7.98066 58.2193 7.94097C58.2055 7.92684 58.1752 7.90687 58.15 7.91208C57.9598 7.96228 57.7637 8.02911 57.5793 8.06267C57.3949 8.09623 57.4203 7.87642 57.1482 8.00068C57.0359 8.05479 56.9129 8.08647 56.7981 8.12104C56.7618 8.13166 56.7285 8.12003 56.6894 8.12504C56.712 8.10029 56.7293 8.06429 56.7603 8.04245C57.1648 7.81978 57.5806 7.5917 58.0137 7.51437C58.2176 7.47831 58.3968 7.41962 58.5931 7.33886C59.0558 7.13655 59.4966 6.91719 59.9883 6.83235C60.2314 6.79128 60.5268 6.60045 60.7879 6.46768C60.8272 6.44874 60.8619 6.36286 60.8568 6.32377C60.8462 6.28738 60.7744 6.23898 60.7437 6.24689C60.4352 6.38177 60.1503 6.42224 59.8626 6.47102C59.8611 6.56854 59.782 6.64819 59.614 6.70149C59.4936 6.73876 59.4158 6.72094 59.3917 6.65649C59.3754 6.62281 59.3509 6.58623 59.3346 6.55255C59.186 6.61728 59.0317 6.68469 58.8804 6.74381C58.8667 6.72968 58.8559 6.70725 58.8307 6.71245C58.3783 6.77836 58.1311 6.91133 57.9482 7.22081C57.9054 7.28987 57.8796 7.33685 57.81 7.33584C57.5008 7.32579 57.1941 7.3353 56.8126 7.50535C56.7284 7.54593 56.5727 7.52413 56.5202 7.48715C56.3301 7.33668 56.0644 7.40251 55.7303 7.57046C55.4272 7.71656 55.1077 7.84293 54.8046 7.98903C54.653 8.06208 54.5655 8.13885 54.5134 8.27466C54.4002 8.58515 54.3672 8.55957 53.8235 8.76628C53.448 8.90576 53.1586 8.87929 52.8174 8.96074C52.6496 9.00011 52.5184 9.01493 52.4105 9.14993C52.3338 9.24914 52.2498 9.27578 52.1301 9.27126C51.9741 9.26342 51.8412 9.20297 51.6281 9.29185C51.6404 9.4035 51.7561 9.49991 51.4836 9.65203C51.469 9.69362 51.4653 9.75769 51.4287 9.78225C51.3162 9.85029 51.2863 9.80246 51.2478 9.76568C51.1243 9.8252 51.0593 9.89116 51.0637 9.97204C51.0681 10.0529 51.1652 10.0822 51.2773 10.042C51.4733 9.97519 51.6643 9.86927 51.8633 9.79412C51.9165 9.77539 51.9692 9.79844 52.0276 9.80486C52.0049 9.82961 51.9848 9.87392 51.9567 9.88745C51.533 10.0848 51.1147 10.2933 50.6886 10.471C50.2091 10.6675 49.8015 10.9125 49.4486 11.2278C49.3752 11.2909 49.3289 11.41 49.1702 11.3966C48.8918 11.3786 48.7361 11.5436 48.5748 11.7112C48.3103 11.6934 48.0436 11.829 47.7715 11.9532C47.2665 12.1828 46.7615 12.4123 46.2568 12.628C46.0688 12.7116 45.8414 12.8282 45.6823 12.8426C45.395 12.8635 45.1395 12.9936 44.873 13.1151C43.4366 13.766 42.0059 14.4141 40.5668 15.0593C40.2779 15.1917 40.2752 15.1861 40.0996 14.994C40.0694 14.9601 40.0139 14.9454 39.9696 14.9252C39.9272 14.9664 39.8653 15.0101 39.8451 15.0544C39.7107 15.2921 39.314 15.5456 39.0435 15.5584C39.0296 15.5582 39.0132 15.5384 39.019 15.5218C39.0333 15.4941 39.0618 15.4527 39.0926 15.4448C39.4599 15.2885 39.6794 15.1412 39.5323 14.9077C39.4805 14.8289 39.6029 14.6524 39.6438 14.522C39.6818 14.3999 39.8045 14.3961 39.8993 14.3919C40.0024 14.3906 40.0613 14.3692 40.0596 14.2939C40.055 14.2269 40.0279 14.1708 40.0121 14.1093C39.4703 14.3773 38.8634 14.5246 38.4195 14.9669C38.3176 15.0713 38.0205 15.1868 37.8644 15.1929C37.5966 15.2113 37.3273 15.3273 37.0672 15.3904C37.0169 15.4008 36.9812 15.3696 36.9369 15.3495C36.7993 15.4227 36.615 15.4423 36.5267 15.5748C36.3902 15.7651 36.1784 15.9572 36.1533 16.1491C36.1498 16.1992 36.1072 16.2543 36.0841 16.307C36.0149 16.2781 35.9541 16.2382 35.868 16.2174C35.732 16.1792 35.5919 16.2329 35.4674 16.3621C35.4165 16.4143 35.34 16.4996 35.3065 16.5019C35.0915 16.5295 34.8007 16.6005 34.6956 16.5404C34.5159 16.4403 34.4735 16.4815 34.3093 16.6575C34.1649 16.817 34.3469 16.9506 34.0548 17.1053C34.0517 17.1275 34.0598 17.1444 34.0455 17.172C33.9017 17.4765 33.4477 17.2665 33.2902 17.5568C33.2345 17.556 33.1732 17.5579 33.1316 17.5434C33.0761 17.5286 33.0436 17.4613 33.0016 17.4746C32.4947 17.6428 32.0261 17.6751 31.531 17.7961C31.5002 17.804 31.4607 17.8369 31.4381 17.8616C31.3815 17.9165 31.4175 17.9338 31.5038 17.9406C31.5483 17.9468 31.5808 18.0142 31.5752 18.0169C31.2628 18.2297 30.9262 18.3781 30.5652 18.476C30.4058 18.5183 30.5174 18.506 30.5407 18.4394C30.6273 18.2317 30.5578 18.2167 30.294 18.3439C30.1425 18.417 29.9689 18.473 29.8394 18.5631C29.6818 18.6667 29.5864 18.8994 29.3833 18.8797C29.0716 18.8501 28.9983 19.0999 28.7993 19.175C28.648 19.2341 28.4914 19.2681 28.3347 19.316C28.2675 19.3345 28.1586 19.3525 28.1442 19.3801C27.9711 19.595 27.7753 19.6479 27.5272 19.6499C27.4324 19.6541 27.2895 19.7022 27.1856 19.7592C26.7503 19.9898 26.2193 20.0935 25.8766 20.4732C25.8398 20.5117 25.7277 20.5518 25.6549 20.5731C25.4984 20.607 25.3418 20.641 25.1996 20.6473C24.7561 20.6743 24.3611 20.8163 23.9996 21.1427C23.946 21.1893 23.8726 21.2523 23.8025 21.2792C23.1946 21.4961 22.7124 21.8876 22.1673 22.1919C21.8667 22.3575 21.5352 22.545 21.4338 22.8083C21.2403 22.8947 20.9985 23.0389 20.8675 23.0398C20.6084 23.0332 20.4573 23.2651 20.2565 23.2789C20.0111 23.2865 19.7751 23.4141 19.5617 23.5308C19.261 23.6965 19.0307 23.6346 18.7645 23.7283C18.6862 23.7523 18.6047 23.7985 18.5344 23.8393C18.3488 23.9564 18.2037 24.1577 17.9421 24.1316C17.7912 24.3496 17.4557 24.4284 17.2412 24.6148C16.9223 24.8861 16.4595 25.0884 16.279 25.4313C16.2532 25.4783 16.0453 25.4056 15.8952 25.5679C15.7904 25.6806 15.782 25.8784 15.5115 25.8912C15.2466 25.9013 15.2155 26.1238 15.0253 26.174C14.9525 26.1952 14.8546 26.2217 14.8186 26.2044C14.7743 26.1843 14.7612 26.1284 14.7786 26.0785C14.7988 26.0342 14.8832 25.9796 14.9341 25.9274C14.9933 25.8781 15.0499 25.8232 15.1035 25.7766C15.0421 25.7785 14.9783 25.7608 14.9195 25.7823C14.7232 25.863 14.5297 25.9494 14.3305 26.0385C14.0977 26.1438 13.8538 26.2406 13.6401 26.3713C13.4686 26.4747 13.3716 26.6322 13.1556 26.7294C12.9283 26.832 12.7036 26.9541 12.4845 27.0736C12.4198 27.1116 12.377 27.1807 12.3344 27.2358C12.303 27.2855 12.2856 27.3355 12.2711 27.377C12.2711 27.377 12.3407 27.3781 12.3771 27.3674C12.9676 27.2004 13.3831 26.7995 13.9026 26.5284C14.0233 26.4632 14.037 26.2907 14.2539 26.3245C14.3429 26.3369 14.2043 26.4798 13.9896 26.6801C13.8087 26.8503 13.6144 26.9924 13.379 27.0782C12.8522 27.2768 12.4544 27.6138 11.9989 27.8887C11.9567 27.9159 11.9249 27.9935 11.9355 28.0299C11.9461 28.0663 12.01 28.0839 12.0599 28.1014C12.0822 28.1045 12.1354 28.0857 12.1718 28.0751C12.2472 28.0595 12.3198 28.0522 12.3924 28.0449C12.3471 28.0944 12.3128 28.1524 12.2566 28.1794C12.1105 28.2637 11.9479 28.3283 11.7991 28.4069C11.5097 28.5672 11.1151 28.6813 10.9065 28.6504C10.7425 28.6257 10.572 28.6595 10.3562 28.7427C9.81811 28.9467 9.45065 29.3037 9.0008 29.5759C8.51165 29.867 8.12133 30.2627 7.5469 30.4773C6.95292 30.6944 6.53553 31.034 6.18429 31.4246C6.08515 31.5346 6.00265 31.6505 5.82614 31.7148C5.71408 31.755 5.52074 31.8275 5.5016 31.8021C5.44668 31.7456 5.59533 31.6808 5.68263 31.618C5.71922 31.5934 5.72834 31.5406 5.7512 31.5019L4.87237 31.7595C4.81543 31.8423 4.7641 31.9224 4.70716 32.0052C4.78264 31.9895 4.8552 31.9822 4.93067 31.9666C5.00053 31.9537 5.07311 31.9464 5.14858 31.9308C5.1143 31.9888 5.08293 32.0385 5.04864 32.0965C4.94599 32.2567 4.74973 32.3374 4.55328 32.4321C4.02294 32.6808 3.74988 33.0615 3.33851 33.3704C3.33177 33.6435 3.00169 33.9202 2.80552 34.1876C2.65756 34.3973 2.5965 34.572 2.692 34.7127C2.80935 34.8844 2.8375 35.0576 2.38034 35.2572C2.00996 35.6225 1.54786 35.9698 1.27189 36.3587C1.24904 36.3974 1.26237 36.4394 1.2786 36.4731C1.28402 36.4843 1.35097 36.4797 1.38465 36.4635C1.5809 36.3827 1.77485 36.2684 1.9707 36.2156C2.16384 36.157 2.34766 36.1653 2.45519 36.2449C2.51863 36.2904 2.40396 36.5117 2.26553 36.6407C2.1271 36.7696 1.98196 36.7842 1.83412 36.7932C1.67796 36.7993 1.53825 36.8252 1.42187 36.9712C1.33105 37.0842 1.26497 37.2198 1.14128 37.2932C0.770218 37.5136 0.883591 37.5765 1.05497 37.6738C1.113 37.7081 0.936765 37.9452 0.989584 37.9543C1.32043 38.0093 1.28621 38.254 1.38672 38.4338C1.44665 38.5295 1.49266 38.6249 1.64239 38.6772C1.88363 38.7615 1.97061 38.9133 1.54592 39.1802C1.49811 39.2102 1.46902 39.2934 1.47402 39.3325C1.49466 39.447 1.54609 39.5537 1.58356 39.6602C1.62625 39.7918 1.75974 39.8104 1.99509 39.7247C2.11837 39.6791 2.12067 39.7125 2.07496 39.7899C2.02924 39.8673 1.97441 39.9975 2.02161 40.0093C2.26887 40.063 2.15188 40.2509 2.16921 40.4016C2.18132 40.5272 2.08157 40.679 2.10531 40.7713C2.13156 40.8832 2.33432 40.9307 2.48967 40.9803C2.70325 41.0503 2.72598 41.2123 2.77949 41.3664C2.7847 41.3915 2.68576 41.4876 2.67183 41.4874C2.40983 41.4892 2.33917 41.5578 2.37584 41.72C2.42833 41.9437 2.64341 42.1029 2.47449 42.4126C2.43148 42.4956 2.76382 42.6397 2.97069 42.5954C3.34536 42.5116 3.29321 42.6474 3.20138 42.83C3.18705 42.8577 3.1613 42.9047 3.16692 42.902C3.36426 42.9383 3.45786 43.0177 3.50094 43.1214C3.41113 43.1647 3.31049 43.1855 3.19634 43.1783C3.06825 43.1709 2.92393 43.1298 2.80917 43.1644C2.56841 43.2389 2.69887 43.4665 2.68523 43.6391C2.66516 43.8701 2.58666 44.0947 2.53041 44.3224C2.46524 44.589 2.30577 44.6313 2.04087 44.6414C1.65599 44.6609 1.51483 45.1717 1.12082 45.244C1.06219 45.2515 1.02126 45.3819 0.989477 45.4595C0.977847 45.4928 1.00762 45.5545 1.03779 45.5884C1.09541 45.6505 1.18571 45.7661 1.23332 45.7501C1.65309 45.6307 2.11113 45.5621 2.31595 45.083C2.40818 44.8725 2.57224 44.8972 2.76418 44.9223C2.88936 44.938 3.11538 44.919 3.13012 44.8634C3.17494 44.6551 3.30756 44.5428 3.45641 44.4641C3.48888 44.5314 3.53255 44.5934 3.66355 44.5925C4.0815 44.5985 4.2153 44.79 4.21728 45.0381C3.91999 45.1675 3.63913 45.3167 3.34725 45.4574C3.16763 45.544 3.13694 45.7386 3.0815 45.9106C3.04079 46.0271 3.06474 46.1055 3.17018 46.1376C3.34507 46.1848 3.52788 46.2627 3.69256 46.2456C3.86285 46.2257 4.00689 46.094 4.16967 46.0156C4.28755 45.9588 4.41705 45.8687 4.53391 45.8815C4.70921 45.9008 4.94523 45.9599 5.02971 46.0921C5.08964 46.1878 5.00994 46.496 4.89727 46.5779C4.61561 46.7829 4.28192 46.9229 3.973 47.0857C3.75119 47.1995 3.70156 47.3549 3.75866 47.6456C3.82868 48.0061 3.53978 48.3252 3.6591 48.7449C3.73845 49.0387 3.81651 49.2294 4.10637 49.228C4.31825 49.2227 4.53346 49.1812 4.74284 49.1564C4.99546 49.6088 5.26671 49.3535 5.54967 49.2517C5.78501 49.1659 5.84126 48.9382 5.97198 48.7645C6.12535 48.5661 6.39843 48.7595 6.6026 48.7096C6.67808 48.6939 6.75997 48.6199 6.80007 48.5452C6.90353 48.3293 7.06982 48.2008 7.2748 48.095C8.09451 47.6861 8.98499 47.3952 9.63635 46.6801C9.66461 46.6526 9.7039 46.6337 9.75151 46.6177C9.73967 46.6649 9.70829 46.7145 9.66859 46.7613C9.65155 46.7834 9.64013 46.8027 9.63702 46.825C9.32769 47.0156 9.04042 47.2232 8.7777 47.4675C8.76647 47.4729 8.75816 47.47 8.74693 47.4754C8.68519 47.5051 8.62575 47.5684 8.57212 47.615C8.59166 47.6125 8.6112 47.61 8.63074 47.6075C8.46675 47.7695 8.31088 47.9484 8.17144 48.1471C8.32477 48.336 8.48742 48.4582 8.66171 48.5471C8.21686 48.8584 7.81321 49.212 7.48653 49.6393C7.45555 49.6611 7.43289 49.6859 7.40753 49.705C7.27762 49.823 7.19162 49.9889 7.07004 50.1098C6.92579 50.2554 6.63727 49.9725 6.51285 50.2885C6.42583 50.5241 6.19242 50.2838 6.04107 50.3429C5.92049 50.3941 5.80262 50.4509 5.68745 50.5134C5.65377 50.5296 5.65005 50.5937 5.6299 50.638C5.50859 50.9316 5.43429 51.251 5.19692 51.4761C5.13478 51.5337 5.21154 51.6212 5.33422 51.6174C5.45129 51.6163 5.60324 51.5154 5.64823 51.6805C5.67718 51.798 5.57854 52.0669 5.54797 52.0609C5.19197 52.0111 5.07322 52.5111 4.8426 52.4631C4.34518 52.3639 4.29062 52.6669 4.34441 52.9938C4.3957 53.3011 4.30468 53.428 4.08307 53.5279C3.96249 53.5791 3.83631 53.633 3.72926 53.7123C3.68415 53.7478 3.67149 53.8507 3.66757 53.9287C3.66446 53.951 3.73623 53.9994 3.78073 54.0056C4.00323 54.0367 4.22052 54.0426 4.44012 54.0821C4.86538 54.1607 5.34399 54.0199 5.67399 54.518C5.71768 54.5799 5.91603 54.5466 6.04162 54.5345C6.16991 54.528 6.34121 54.4385 6.41007 54.4952C6.54506 54.6031 6.6539 54.7858 6.7072 54.9538C6.75489 55.1245 6.72711 55.3108 6.7328 55.4948C6.99831 55.4429 7.22378 55.6524 7.47415 55.6839C7.78856 55.7191 8.04567 55.4776 8.38403 55.5912C8.56433 55.6496 8.72542 55.4958 8.65378 55.2467C8.58465 55.0172 8.68129 54.8876 8.85529 54.8038C9.21723 54.6362 9.28875 54.1245 9.70019 54.0022C9.72535 53.997 9.71946 53.8269 9.68428 53.754C9.64911 53.681 9.56112 53.5989 9.49166 53.584C9.31656 53.5508 9.13797 53.5677 8.96287 53.5345C8.77675 53.4928 8.64486 53.3627 8.54435 53.1828C8.44384 53.003 8.43084 52.7465 8.55724 52.6786C8.79589 52.5567 9.02894 52.4374 9.27571 52.3323C9.51416 52.2243 9.67391 52.3548 9.70274 52.6729C9.74369 53.1166 9.741 53.111 10.1856 53.2011C10.3162 53.2281 10.452 53.2802 10.5766 53.3377C10.7484 53.4071 10.8621 53.4422 10.9961 53.2323C11.2214 52.8817 11.6346 52.634 12.0044 52.6979C12.5604 52.7896 12.921 52.3322 13.4078 52.395C13.967 52.4644 14.3072 52.0652 14.7635 51.9213C14.8895 51.8814 15.0022 51.7994 15.1282 51.7594C15.2513 51.7278 15.4053 51.6742 15.5106 51.7203C15.9756 51.9389 16.3889 51.878 16.7829 51.619C17.4273 51.7649 17.9125 51.5517 18.2716 51.0051C18.303 50.9554 18.5112 51.0142 18.6276 51.0549C18.8106 51.1188 18.7782 51.2382 18.6737 51.337C18.4787 51.5209 18.3731 51.89 17.98 51.706C17.9523 51.6916 17.8737 51.7295 17.8677 51.7601C17.7795 52.0793 17.5805 52.1545 17.2781 52.0581C17.2282 52.0407 17.1457 52.1565 17.0863 52.2197C17.0778 52.2308 17.0992 52.2896 17.1184 52.315C17.6066 52.8544 17.7626 52.8622 18.2067 52.406C18.6226 51.9773 19.1032 51.6972 19.9355 51.5727C20.1562 51.5425 20.1641 51.1858 20.449 51.3321C20.6233 51.421 20.6211 51.1869 20.7032 51.0989C20.7939 50.9999 20.8926 50.9177 21.0506 50.9729C21.2975 51.0546 21.4906 50.996 21.5974 50.744C21.69 50.5056 21.9063 50.3945 22.1102 50.3584C22.6105 50.2626 23.1965 50.4021 23.4374 49.7395C23.4578 49.6813 23.6834 49.6901 23.8112 49.7115C24.1169 49.7716 24.4171 49.6338 24.5285 49.4487C24.8398 48.9321 25.3544 48.8086 25.8232 48.5757C26.6121 48.1747 27.4093 47.7765 28.2064 47.3924C28.4478 47.276 28.6506 47.1229 28.7907 46.8824C29.179 47.0135 29.3716 46.7961 29.5046 46.4692C30.0772 46.38 30.2401 45.7135 30.7418 45.5201C31.0332 45.4072 31.2898 45.2075 31.5781 45.1169C31.9449 45.0024 32.0237 44.5632 32.3574 44.4231C32.5565 44.334 32.7309 44.2223 32.8704 44.0237C33.1378 43.6458 33.5313 43.4146 33.9909 43.4352C34.3363 43.4485 34.5521 43.3653 34.7844 43.1011C35.0735 42.7681 35.3091 42.281 35.8874 42.3757C35.9402 42.3849 36.0227 42.269 36.0572 42.1971C36.2124 41.8733 36.4573 41.7068 36.8154 41.8039C37.0708 41.8745 37.3336 41.817 37.4142 41.6398C37.6125 41.2191 37.9741 41.0794 38.325 40.9034C38.6366 40.7462 38.9121 40.5858 39.1588 40.294C39.431 39.9691 39.8439 39.7493 40.3309 39.7981C40.7093 39.8371 41.0212 39.666 41.2265 39.3457C41.3291 39.1856 41.467 39.0984 41.6106 38.9946C41.7964 38.8635 42.0677 39.1823 42.1975 38.8777C42.3186 38.5979 42.5927 38.535 42.8257 38.4158C43.5388 38.0583 44.26 37.7175 44.984 37.3685C47.5409 36.1292 50.0977 34.8898 52.6463 33.6476C52.882 33.5339 53.1816 33.438 53.2961 33.2306C53.4592 32.9376 53.9402 33.2037 53.9494 32.7635C54.2274 32.6226 54.5026 32.4761 54.7749 32.3379C55.4121 32.0239 56.052 31.7154 56.6865 31.3958C56.8803 31.2954 57.1376 31.2267 57.2349 31.0553C57.4323 30.7043 57.7572 30.5891 58.0715 30.4376C58.3073 30.324 58.6179 30.2365 58.7436 30.0238C59.0036 29.5872 59.4206 29.4623 59.8108 29.2673C60.2262 29.067 60.6445 28.8585 61.0598 28.6583C61.5067 28.5951 61.9751 28.5768 62.4788 28.6315L61.9891 28.577C61.8736 28.4667 62.1438 28.2811 62.3496 28.1196C62.3051 28.1134 62.2579 28.1016 62.2134 28.0953C63.0863 27.6677 63.962 27.2456 64.8349 26.8179C65.1885 26.6475 65.5062 26.4598 65.7951 26.1407C66.0727 25.827 66.5564 25.7253 66.9549 25.5332C67.8368 25.6408 68.4312 25.0084 69.1545 24.7151C69.4106 24.1558 69.9747 24.0776 70.4297 23.8306C70.7809 23.6406 71.2173 23.5271 71.4557 23.2324C71.5124 23.1635 71.5662 23.103 71.6228 23.0481C72.1369 22.9524 72.8474 22.776 74.032 22.3779C75.9204 21.1149 78.1392 19.5474 80.6061 18.552C81.4977 18.1775 82.4919 18.231 82.4407 18.4978C83.4576 17.9384 84.9561 17.2299 86.05 16.7441C90.3079 13.7096 84.7208 15.3927 82.9376 16.1277ZM77.4007 11.0839C77.3817 11.0446 77.5019 11.0213 77.5271 11.0161C77.5183 11.0411 77.4564 11.0848 77.5152 11.0633C77.5007 11.1049 77.3913 11.1507 77.3489 11.1919C77.2545 11.1682 77.5125 11.0577 77.4007 11.0839ZM76.5715 11.3729C76.6333 11.3432 76.6979 11.3051 76.7597 11.2753C76.7393 11.3335 76.7021 11.3999 76.6344 11.4602C76.5194 11.5087 76.5709 11.4147 76.5715 11.3729ZM76.2123 11.5461C76.1918 11.6182 76.3132 11.5113 76.4115 11.457C76.4926 11.4387 76.3967 11.5125 76.4724 11.4829C76.5165 11.517 76.2901 11.5639 76.3342 11.598C76.2581 11.6554 76.2533 11.6024 76.1859 11.6349C76.1184 11.6813 76.2417 11.6357 76.1879 11.6962C76.1571 11.7041 76.1236 11.7064 76.0814 11.7337C76.0957 11.706 76.0905 11.6809 76.0741 11.6611C75.9695 11.7599 76.0645 11.7418 75.8687 11.7947C75.8441 11.7581 75.9535 11.7123 76.035 11.6661C76.0015 11.6684 75.9624 11.6734 75.9204 11.6868C75.972 11.5928 76.0909 11.653 76.2123 11.5461ZM75.7132 11.759C75.7751 11.7153 75.8001 11.724 75.8477 11.708C75.8558 11.7248 75.7997 11.7519 75.7631 11.7765C75.7068 11.8175 75.8095 11.844 75.6695 11.8838C75.6614 11.8669 75.6477 11.8528 75.6367 11.8443C75.7069 11.8035 75.7352 11.7761 75.7132 11.759ZM75.9935 10.8768C76.1158 10.9009 76.1931 10.7599 76.3291 10.7981C76.1522 10.8903 76.0898 10.9618 75.9836 10.9854C75.9729 10.949 76.0488 10.9055 75.9935 10.8768ZM77.2736 5.23794C77.1337 5.27771 77.4306 5.1761 77.2935 5.20756C77.3303 5.16907 77.4588 5.14864 77.5208 5.10494C77.5289 5.12178 77.4728 5.14887 77.4335 5.16781C77.4025 5.18965 77.4329 5.20959 77.3936 5.22853C77.393 5.27033 77.3832 5.17821 77.2736 5.23794ZM77.5011 5.30813C77.5092 5.32497 77.5259 5.33078 77.5539 5.31725C77.4043 5.45164 77.4884 5.22431 77.6475 5.20989C77.6749 5.23816 77.5433 5.28088 77.5011 5.30813ZM77.8311 5.23208C77.7945 5.25664 77.8217 5.29886 77.8639 5.2716C77.7315 5.37001 77.8026 5.27349 77.6884 5.26626C77.7442 5.26707 77.8427 5.19881 77.8957 5.194C77.9009 5.21916 77.8448 5.24622 77.8311 5.23208ZM77.8544 4.96489C77.8471 4.89232 77.9808 4.89705 78.0935 4.81508C78.1542 4.85497 77.8991 4.95718 77.8544 4.96489ZM77.9199 4.87106C77.7632 4.91895 77.7604 4.91335 77.618 4.93358C77.5993 4.88036 77.7419 4.8462 77.7862 4.86635C77.8833 4.7089 78.1402 4.66803 78.298 4.55047C78.3641 4.6016 78.4186 4.49928 78.5271 4.50921C78.428 4.61925 78.0309 4.71381 77.9199 4.87106ZM78.6171 4.45199C78.5926 4.4154 78.6211 4.37401 78.7026 4.32781C78.7387 4.33112 78.772 4.34277 78.7853 4.38477C78.7151 4.42555 78.6618 4.44427 78.6171 4.45199ZM80.6014 2.91451C80.6962 2.91032 80.6312 2.97627 80.6697 3.01306C80.521 3.07779 80.5663 3.02826 80.4088 3.13188C80.3227 3.11113 80.5073 3.06363 80.4742 3.03807C80.4526 2.99316 80.2801 3.16623 80.2869 3.07994C80.4216 3.015 80.5054 3.00231 80.6014 2.91451ZM83.0257 1.40013C83.0334 1.44483 82.9324 1.49352 82.8675 1.54553C82.8099 1.48339 82.9473 1.42407 83.0257 1.40013ZM81.7829 1.96455C81.7064 2.04984 81.6284 2.04594 81.5301 2.10025C81.5137 2.0805 81.5056 2.06366 81.4891 2.04392C81.6155 1.97608 81.7105 1.95793 81.7829 1.96455ZM80.2242 3.17937C80.1767 3.18147 80.1008 3.22497 80.025 3.26846C79.9979 3.21233 80.2033 3.07874 80.2242 3.17937ZM79.7974 3.01152C79.8583 3.03749 79.6197 3.15945 79.6311 3.14011C79.5647 3.10291 79.7411 3.05251 79.7974 3.01152ZM79.2017 3.15341C79.1868 3.22287 78.9907 3.2897 78.9071 3.28849C78.8582 3.20138 79.1377 3.14969 79.2017 3.15341ZM79.6526 3.95979C79.5988 4.02032 79.4169 4.0734 79.3589 4.03912C79.4788 4.02971 79.5728 3.89453 79.6526 3.95979ZM79.7189 4.77175C79.6649 4.84622 79.704 4.84119 79.7618 4.8894C79.5961 4.97618 79.5325 4.94464 79.489 5.05548C79.3435 5.09796 79.1077 5.02486 79.3324 4.90271C79.3422 4.99482 79.6048 4.76453 79.7189 4.77175ZM79.4606 4.70948C79.4964 4.74065 79.3147 4.7798 79.3952 4.80326C79.3505 4.81097 79.2972 4.82974 79.227 4.87053C79.1332 4.80507 79.3824 4.71949 79.4606 4.70948ZM79.0917 4.20249C79.1024 4.23887 78.94 4.28947 78.8864 4.33607C78.8427 4.27412 79.025 4.19316 79.0917 4.20249ZM77.9567 4.25848C78.1055 4.17982 78.2487 4.10388 78.3976 4.02522C78.4382 4.10942 78.5117 4.03242 78.6186 3.96708C78.7136 3.94895 78.4361 4.06197 78.6005 4.05878C78.48 4.10998 78.419 4.08404 78.3259 4.16351C78.3178 4.14667 78.3041 4.13251 78.2987 4.12129C78.1947 4.1783 78.1548 4.23905 78.0178 4.27051C77.9897 4.28404 78.0062 4.30378 78.006 4.31771C77.8995 4.35519 78.0039 4.27031 77.9567 4.25848ZM77.7766 4.37292C77.7918 4.28953 77.849 4.37956 77.8912 4.3523C77.8904 4.40802 77.7557 4.47294 77.6713 4.52746C77.5715 4.49257 77.9134 4.35539 77.7766 4.37292ZM76.9829 4.72092C77.0409 4.7552 76.9929 4.79909 76.984 4.83798C76.8802 4.88107 76.8021 4.8911 76.7694 4.83768C76.8397 4.7969 76.9126 4.76171 76.9829 4.72092ZM76.702 4.87014C76.6586 4.98099 76.8305 4.84971 76.8457 4.95304C76.6139 4.9887 76.328 5.09883 76.1037 5.19312C76.2536 5.04479 76.5692 4.99642 76.702 4.87014ZM58.6076 6.90985C58.7004 6.85825 58.8041 6.81515 58.9052 6.76645C58.9024 6.76084 58.9081 6.75815 58.9054 6.75254L58.9332 6.75293C58.922 6.75834 58.9164 6.76104 58.9052 6.76645C58.9077 6.786 58.9101 6.80557 58.907 6.82782C58.8865 6.89998 58.7965 6.95721 58.6676 7.0055C58.6395 7.01903 58.5726 7.02364 58.5728 7.00971C58.5788 6.97914 58.5796 6.92338 58.6076 6.90985ZM56.1187 8.27563C55.9864 8.3601 55.8486 8.44728 55.8206 8.46081C55.5513 8.57675 55.3941 8.65249 55.2721 8.61449C55.2471 8.60577 55.2336 8.57771 55.2423 8.55276C55.2569 8.51116 55.3055 8.42547 55.3194 8.42567C55.434 8.40503 55.5371 8.40373 55.6517 8.3831C55.8024 8.36577 55.9893 8.16506 56.1187 8.27563ZM54.9337 8.31417C54.9509 8.27819 55.0182 8.24574 55.069 8.20746C55.0719 8.19914 55.0692 8.19351 55.0748 8.1908L55.097 8.19392L55.0748 8.1908C55.0804 8.1881 55.0916 8.18267 55.0945 8.17435C55.1008 8.12985 55.0957 8.0908 55.1352 8.05793C55.1918 8.00301 55.2725 8.01251 55.2411 8.06222C55.2238 8.0982 55.1536 8.13898 55.0945 8.17435C55.0916 8.18267 55.0943 8.1883 55.0887 8.191C55.0831 8.19371 55.0719 8.19914 55.069 8.20746C55.0631 8.2241 55.0657 8.24364 55.0598 8.26028C55.0567 8.28253 55.048 8.30748 55.0283 8.32391C54.9774 8.37613 54.9106 8.36679 54.9337 8.31417ZM8.27292 53.452C8.2644 53.4631 8.19242 53.4286 8.17057 53.3976C8.15955 53.3891 8.16539 53.3725 8.16289 53.3529C8.16038 53.3334 8.16619 53.3167 8.16929 53.2945C8.18052 53.2891 8.19736 53.2809 8.20859 53.2755C8.21982 53.2701 8.23105 53.2647 8.24768 53.2705C8.32817 53.294 8.34108 53.3638 8.27292 53.452ZM74.0727 13.0339C74.1064 13.0177 74.1145 13.0346 74.1311 13.0404C74.0974 13.0566 74.0667 13.0645 74.0274 13.0835C73.2424 13.5932 73.0835 13.9811 73.1569 14.3054C72.9943 14.37 72.7947 14.4869 72.6161 14.5038C72.5062 14.5914 72.3813 14.7485 72.2706 14.6911C72.1669 14.7342 72.2137 14.7739 72.1461 14.8203C72.0761 14.8472 72.0972 14.7332 72.0242 14.7684C72.0403 14.816 71.9397 14.8368 71.9052 14.9088C71.8108 14.8851 71.6507 14.9692 71.5704 14.9318C71.6494 14.866 71.8662 14.7131 71.7157 14.7165C71.6773 14.8665 71.4775 14.9973 71.2898 15.0671C71.1976 15.0769 71.1026 15.095 71.0132 15.1104C70.991 15.1073 70.9687 15.1042 70.9494 15.0928C70.9101 15.1117 70.9155 15.1229 70.9238 15.1259C70.8652 15.1334 70.8036 15.1492 70.745 15.1567C70.734 15.1482 70.7229 15.1397 70.7092 15.1255C70.7541 15.1039 70.7907 15.0794 70.8356 15.0577C70.7734 14.9286 70.6245 15.0073 70.4561 15.0884C70.4734 15.0524 70.4962 15.0137 70.5025 14.9692C70.6262 14.8958 70.8054 14.8371 70.9962 14.7451C71.0141 14.6673 70.9633 14.7056 70.8824 14.71C70.9448 14.6385 71.0458 14.5898 71.1579 14.5496C71.1629 14.5887 71.1652 14.6221 71.1702 14.6612C71.128 14.6885 71.0885 14.7214 71.038 14.7457C71.0488 14.7682 71.0767 14.7686 71.0989 14.7717C71.1214 14.7608 71.1438 14.75 71.158 14.7363C71.1276 14.7163 71.139 14.697 71.1644 14.6779C71.1721 14.7226 71.1798 14.7673 71.1875 14.812C71.1624 14.8172 71.1428 14.8197 71.1262 14.8139C70.9944 14.8705 70.9651 14.9676 70.8535 14.9799C70.8304 15.0325 70.9227 15.0088 70.8408 15.0829C70.978 15.0375 71.071 14.9719 70.9343 14.9755C71.0046 14.9347 71.0971 14.897 71.1926 14.851C71.1951 14.8706 71.3177 14.8668 71.3845 14.8762C71.3795 14.8371 71.3772 14.8036 71.3721 14.7645C71.4817 14.7048 71.5857 14.6477 71.6453 14.5706C71.5863 14.606 71.5642 14.5889 71.5108 14.6216C71.5133 14.6411 71.4457 14.6875 71.3699 14.731C71.3649 14.6919 71.3598 14.6528 71.3577 14.6054C71.3494 14.6025 71.3467 14.5969 71.3384 14.594C71.3609 14.5832 71.3777 14.5751 71.3862 14.564C71.3694 14.5722 71.3469 14.583 71.3444 14.5634C71.381 14.5389 71.4342 14.5201 71.429 14.495C71.387 14.5083 71.3448 14.5356 71.3026 14.5628C71.2723 14.5429 71.2502 14.5258 71.2198 14.5059C71.3656 14.4495 71.5113 14.393 71.5743 14.2797C71.4874 14.3147 71.3949 14.3523 71.2605 14.3894C71.8277 14.1022 72.1163 13.9977 72.6669 13.6908C72.6722 13.7159 72.6299 13.7432 72.6351 13.7683C72.7644 13.6922 72.7654 13.6226 72.906 13.541C72.9197 13.5551 72.9276 13.5859 72.9669 13.5669C72.9617 13.5418 73.0289 13.5232 73.0597 13.5153C73.0521 13.4567 72.9449 13.5499 72.9259 13.5106C73.0816 13.3456 73.3583 13.2883 73.5841 13.0965C73.6675 13.1117 73.8136 13.0274 73.9196 13.0178C73.9125 12.9313 73.8231 12.9467 73.9304 12.8535C74.0525 12.8915 74.2421 12.8831 74.0727 13.0339ZM75.3809 10.4527C75.3828 10.514 75.2743 10.5041 75.2464 10.5037C75.258 10.4704 75.3339 10.4269 75.3847 10.3887C75.3928 10.4055 75.3508 10.4188 75.331 10.4352C75.3362 10.4604 75.3585 10.4635 75.3809 10.4527ZM75.2591 10.4008C75.1006 10.3734 74.9163 10.5937 74.84 10.665C74.7705 10.6501 74.6755 10.6682 74.5917 10.6809C74.5996 10.7117 74.6668 10.6932 74.619 10.7232C74.5179 10.7719 74.4624 10.7571 74.3898 10.7644C74.4171 10.8066 74.3917 10.8258 74.3439 10.8557C74.1782 10.7558 74.0172 10.7088 73.8559 10.6898C73.9883 10.5914 74.2151 10.5166 74.3186 10.4875C74.4085 10.4442 74.2575 10.4754 74.2914 10.4453C74.6746 10.3505 75.0428 10.3252 75.3239 10.3488C75.3181 10.3654 75.2927 10.3845 75.2591 10.4008ZM70.7612 12.3059C70.7837 12.2951 70.8117 12.2816 70.8315 12.2651C70.8061 12.2843 70.7808 12.3034 70.7554 12.3226C70.7611 12.3199 70.7583 12.3142 70.7612 12.3059ZM71.3992 12.7109C71.4863 12.662 71.5228 12.6375 71.5707 12.6075C71.5761 12.6187 71.5815 12.6299 71.5869 12.6412C71.5162 12.7098 71.4374 12.7617 71.3992 12.7109ZM72.9446 12.0282C72.9503 12.0255 72.9503 12.0255 72.9446 12.0282C72.9503 12.0255 72.9446 12.0282 72.9446 12.0282ZM74.229 12.8272C74.1448 12.8678 74.1458 12.7981 74.0616 12.8387C74.0878 12.7638 74.3025 12.7502 74.229 12.8272ZM74.627 12.4762C74.6738 12.5159 74.6036 12.5567 74.6699 12.5939C74.5662 12.637 74.4086 12.7406 74.3562 12.7036C74.631 12.585 74.5087 12.5609 74.627 12.4762ZM75.3262 11.157C75.2338 11.1807 75.227 11.2671 75.1661 11.2411C75.1525 11.213 75.2646 11.1728 75.2315 11.1473C75.1332 11.2016 75.1088 11.1511 74.9906 11.2358C74.9862 11.3416 74.5393 11.6054 74.5523 11.4746C74.4366 11.5789 74.3497 11.6138 74.5088 11.5994C74.3717 11.6309 74.1832 11.7563 74.2497 11.7796C74.225 11.7569 74.1404 11.8254 74.1214 11.7861C74.1221 11.7443 74.3123 11.6941 74.2459 11.6569C74.213 11.6174 74.0378 11.7849 74.005 11.7454C74.0892 11.7048 73.9921 11.6755 74.0985 11.638C74.0555 11.721 74.179 11.6615 74.2468 11.6012C74.2042 11.6563 74.2794 11.6546 74.375 11.5947C74.2553 11.5902 74.2808 11.5571 74.3739 11.4776C74.1858 11.5752 73.9868 11.6504 73.8211 11.7372C73.8856 11.713 73.7363 11.8195 73.7694 11.8451C73.5416 11.9895 73.4418 11.9546 73.2166 12.1046C73.259 12.0634 73.2229 12.0601 73.1979 12.0514C73.2204 12.0406 73.2399 12.0381 73.2513 12.0187C73.3324 12.0004 73.4673 11.9215 73.4675 11.9076C73.4282 11.9265 73.437 11.9016 73.4457 11.8766C73.3752 11.9314 73.3135 11.9611 73.2632 11.9715C73.2748 11.9383 73.2783 11.8881 73.2764 11.8268C73.2876 11.8214 73.2989 11.816 73.3101 11.8106C73.3236 11.8386 73.3513 11.853 73.3847 11.8507C73.4411 11.8097 73.6174 11.7593 73.551 11.7221C73.3428 11.864 73.4005 11.7255 73.2666 11.7347C73.2668 11.7208 73.2641 11.7151 73.2643 11.7012C73.2618 11.6817 73.2676 11.665 73.2707 11.6428C73.3549 11.6022 73.4362 11.5699 73.5119 11.5404C73.4755 11.551 73.4505 11.5423 73.4954 11.5206C73.5852 11.4774 73.658 11.4561 73.7164 11.4625C73.6642 11.4116 73.7058 11.4262 73.79 11.3856C73.7765 11.3575 73.7289 11.3735 73.7153 11.3454C73.8305 11.283 73.9235 11.2175 74.0077 11.1769C74.0661 11.1833 74.1272 11.1954 74.1965 11.2242C74.2158 11.2357 74.2354 11.2332 74.2547 11.2446C74.066 11.384 73.7612 11.4548 73.64 11.5478C73.7263 11.5547 73.8641 11.4675 73.9418 11.4853C73.7088 11.6046 73.5868 11.5666 73.4408 11.6369C73.5095 11.7076 73.6608 11.6484 73.7837 11.6307C73.8887 11.6908 73.5305 11.7943 73.512 11.9139C73.6723 11.8158 73.8328 11.7039 73.9238 11.577C74.0825 11.5905 74.1922 11.5168 74.3912 11.4417C74.2772 11.4205 74.3043 11.4766 74.2974 11.3762C74.2107 11.3972 74.2068 11.4752 74.171 11.444C74.1745 11.3939 74.3119 11.3346 74.3154 11.2845C74.3992 11.2718 74.4327 11.2695 74.5146 11.1954C74.5119 11.1898 74.5063 11.1925 74.5036 11.1869C74.5177 11.1731 74.5262 11.1621 74.5404 11.1484C74.5431 11.154 74.5374 11.1567 74.5401 11.1623C74.5878 11.1463 74.621 11.1579 74.6429 11.1889C74.5614 11.2351 74.4772 11.2757 74.3901 11.3246C74.4762 11.3453 74.4138 11.4169 74.5594 11.3744C74.546 11.3324 74.4814 11.3705 74.4766 11.3175C74.5776 11.2688 74.7491 11.1653 74.7704 11.2381C74.7292 11.1957 75.146 11.0847 74.9566 11.0792C75.0183 11.0494 75.066 11.0334 75.1049 11.0423C75.1573 11.0793 75.1288 11.1207 75.1477 11.16C75.229 11.1277 75.2933 11.1175 75.3687 11.1019C75.3018 11.1065 75.3683 11.1297 75.3262 11.157ZM75.2714 11.0865C75.2949 11.0061 75.4088 11.0272 75.3568 10.9624C75.4917 10.8835 75.5277 10.9007 75.6096 10.8267C75.6361 10.9246 75.4286 11.0108 75.2714 11.0865ZM75.5234 11.0066C75.7251 10.937 75.5141 11.0733 75.4189 11.1054C75.4278 11.0665 75.4563 11.0251 75.5043 10.9812C75.58 10.9517 75.6754 10.9057 75.7452 10.8927C75.7411 10.9846 75.6276 10.9356 75.5234 11.0066ZM75.1721 10.8231C75.18 10.8539 75.2472 10.8354 75.1994 10.8653C75.102 10.85 75.0339 10.9382 74.9048 11.0004C74.8744 10.9804 74.8499 10.9439 74.7711 10.9957C74.8624 11.0416 74.6551 11.1138 74.6247 11.0939C74.6245 11.1078 74.6439 11.1192 74.6129 11.1411C74.5464 11.1178 74.7291 11.009 74.6256 11.0381C74.6364 11.0606 74.5802 11.0877 74.5493 11.1095C74.575 11.0625 74.584 11.0236 74.576 10.9929C74.6459 10.9799 74.5921 11.0405 74.7183 10.9866C74.6715 10.9469 74.8265 10.8237 74.9101 10.8249C74.9068 10.8611 74.8228 10.8878 74.912 10.8863C74.9581 10.781 75.1284 10.7612 75.0764 10.6963C75.244 10.6709 75.2508 10.5846 75.4438 10.54C75.4585 10.4845 75.3914 10.503 75.4365 10.4675C75.4949 10.4739 75.529 10.4298 75.5658 10.3913C75.6741 10.4151 75.76 10.4498 75.7983 10.5006C75.6516 10.6266 75.3564 10.8035 75.1721 10.8231ZM76.7093 7.82715C76.6606 7.72612 76.8532 7.70941 77.022 7.60038C77.007 7.66984 76.7773 7.75289 76.7093 7.82715ZM77.6565 7.28071C77.6791 7.25595 77.713 7.22581 77.7691 7.19875C77.7912 7.21579 77.7546 7.24035 77.771 7.2601C77.7848 7.27423 77.8157 7.25237 77.8438 7.23884C77.829 7.29436 77.6442 7.35578 77.6565 7.28071C77.4286 7.42511 77.2355 7.48362 76.9723 7.56899C77.1552 7.44623 77.3631 7.33222 77.5681 7.22651C77.5649 7.24876 77.492 7.28392 77.5028 7.30637C77.5646 7.27661 77.6404 7.2331 77.6565 7.28071ZM77.5124 5.87684C77.5712 5.8554 77.6302 5.82002 77.692 5.79026L77.5116 5.93254C77.5034 5.9157 77.487 5.89598 77.5124 5.87684ZM77.4918 5.94897L77.3565 6.0557C77.3201 6.06632 77.2866 6.06863 77.2644 6.06553C77.3205 6.03847 77.408 5.96169 77.4918 5.94897ZM76.0477 6.36839C76.1286 6.36399 76.1901 6.34815 76.1013 6.32178C76.2466 6.29323 76.4774 6.14049 76.5886 6.15604C76.6132 6.19263 76.5681 6.22824 76.6178 6.25961C76.4794 6.38859 76.1737 6.51512 75.9715 6.62645C75.9962 6.64911 76.0239 6.66347 76.0742 6.65305C76.0468 6.62478 76.0667 6.59439 76.1397 6.55922C76.1896 6.57666 76.1923 6.5823 76.1888 6.63241C76.2646 6.58892 76.3405 6.54541 76.3624 6.57638C76.3175 6.59802 76.2809 6.62259 76.236 6.64424C76.2795 6.72011 76.5429 6.62081 76.6107 6.56048C76.5574 6.57922 76.5156 6.57861 76.4824 6.56697C76.5246 6.53972 76.5193 6.51457 76.5559 6.49002C76.6877 6.4334 76.6308 6.51618 76.7034 6.50888C76.7379 6.43691 76.7533 6.52631 76.7842 6.50447C76.7959 6.47119 76.7992 6.43503 76.8778 6.39714C76.8888 6.40567 76.8942 6.41689 76.8996 6.42811L76.7107 6.58143C76.6969 6.56729 76.6834 6.53924 76.6242 6.58854C76.624 6.60247 76.6352 6.59705 76.6406 6.60827C76.2628 6.71427 76 6.77178 75.8158 6.79141C75.8638 6.74751 75.9146 6.70922 75.9821 6.66282C75.8476 6.71382 75.6773 6.73368 75.5318 6.77617C75.4931 6.75331 75.474 6.72795 75.4746 6.68615C75.4831 6.67513 75.4887 6.67242 75.5055 6.6643C75.5164 6.68675 75.477 6.70568 75.5074 6.72563C75.7602 6.58995 75.6879 6.77006 75.9549 6.62065C75.9919 6.56824 75.9898 6.52081 76.0602 6.46609C75.9818 6.49004 76.0111 6.39295 76.0477 6.36839ZM76.0513 5.54353C76.0459 5.5323 76.0405 5.52108 76.035 5.50985C76.066 5.488 76.1026 5.46343 76.1588 5.43638C76.1806 5.46735 76.113 5.51377 76.0513 5.54353ZM76.0776 5.26799C75.9599 5.31087 76.0079 5.26698 75.8784 5.35708C75.8206 5.30886 76.0784 5.21226 76.0776 5.26799ZM73.8595 5.63158C73.8771 5.56773 74.0391 5.54501 74.0468 5.58971C73.9341 5.67168 73.941 5.58538 73.8595 5.63158ZM70.2591 8.49451C70.2583 8.55024 70.2492 8.60307 70.2205 8.65839C70.2043 8.62471 70.1741 8.59084 70.1579 8.55716C70.1608 8.54884 70.1637 8.5405 70.1749 8.53509C70.1974 8.52427 70.231 8.50804 70.2591 8.49451ZM45.8713 15.5737C45.8656 15.5764 45.86 15.5791 45.8517 15.5762C45.8842 15.6436 45.8412 15.7266 45.7289 15.7807C45.51 15.8862 45.2803 15.9693 45.0535 16.044C45.0171 16.0546 44.9759 16.0122 44.9428 15.9867C44.9372 15.9894 44.926 15.9948 44.9231 16.0031C44.9147 16.0002 44.912 15.9946 44.9093 15.989C44.8534 16.0021 44.7889 16.0262 44.7557 16.0146C44.7058 15.9972 44.7484 15.942 44.8153 15.9374C44.8571 15.938 44.8846 15.9663 44.9093 15.989C44.9205 15.9836 44.9289 15.9865 44.9401 15.9811C44.9401 15.9811 44.9428 15.9867 44.9484 15.984C45.0047 15.943 45.0694 15.9049 45.0979 15.8635C45.2483 15.6734 45.4334 15.5981 45.6646 15.6042C45.7203 15.605 45.7931 15.5837 45.8573 15.5735L45.8546 15.5679C45.8602 15.5652 45.8715 15.5598 45.8744 15.5515C45.8802 15.5349 45.8777 15.5153 45.8835 15.4987C45.8866 15.4764 45.8953 15.4515 45.9151 15.435C45.9743 15.3857 46.044 15.3867 46.0153 15.442C45.9925 15.4807 45.9334 15.5161 45.88 15.5488C45.8742 15.5654 45.8742 15.5654 45.8713 15.5737ZM44.1414 14.9411C44.1414 14.9411 44.0769 14.9652 44.0491 14.9648C43.9821 14.9694 43.9039 14.9795 43.8484 14.9647C43.8039 14.9585 43.785 14.9192 43.7546 14.8993C43.8166 14.8556 43.8812 14.8175 43.9375 14.7765C44.0693 14.7199 44.1613 14.724 44.1769 14.7995C44.1819 14.8386 44.1532 14.8939 44.1414 14.9411ZM58.6292 11.0014C58.5396 11.0308 58.4499 11.0601 58.363 11.0951C58.3661 11.0728 58.3637 11.0533 58.3612 11.0337C58.4256 11.0096 58.4982 11.0023 58.5703 11.0228C58.5816 11.0174 58.6067 11.0122 58.6292 11.0014ZM54.049 8.97576C54.3277 8.77914 54.5715 8.88301 54.8463 8.76437C54.8744 8.75084 54.9268 8.78784 54.9628 8.80508C54.9008 8.84877 54.836 8.90079 54.774 8.94448C54.6755 9.01272 54.6327 9.08179 54.6317 9.15145C54.6373 9.14875 54.6373 9.14875 54.6456 9.15165C54.6483 9.15727 54.651 9.16286 54.6537 9.16848C54.7519 9.12809 54.8529 9.07942 54.951 9.03903C54.9791 9.02551 55.0431 9.02921 55.0431 9.02921C55.0315 9.06248 55.0224 9.11529 54.9914 9.13714C54.9014 9.19436 54.7976 9.23746 54.6966 9.28616C54.6993 9.29177 54.6993 9.29178 54.702 9.2974L54.6964 9.3001C54.7713 9.32627 54.8461 9.35242 54.9098 9.38399C54.9541 9.40414 55.0289 9.43031 55.0144 9.4719C54.9357 9.71044 54.7651 9.94487 54.4444 10.1548C54.4078 10.1794 54.3244 10.1642 54.2601 10.1744C54.3657 10.006 54.4683 9.84579 54.1984 9.81679C53.987 9.79422 53.7772 9.84692 53.5358 9.96326C53.5021 9.97949 53.4632 9.9706 53.416 9.95877C53.4021 9.95856 53.3854 9.95273 53.3715 9.95252C53.3856 9.93879 53.3915 9.92216 53.4056 9.90844C53.4197 9.89471 53.4283 9.88367 53.4451 9.87555C53.8576 9.68366 54.2756 9.48909 54.6908 9.30281C54.6825 9.2999 54.6825 9.29988 54.6742 9.29698C54.6798 9.29427 54.6854 9.29157 54.691 9.28887C54.6777 9.24687 54.6614 9.21318 54.6481 9.17118C54.6425 9.17389 54.6313 9.17929 54.6257 9.182C54.623 9.17639 54.6315 9.16539 54.6288 9.15978C54.3234 9.2724 54.1605 9.16415 53.9293 9.15801C53.9014 9.15761 53.8794 9.14054 53.8544 9.13181C53.9195 9.06587 53.9814 9.02216 54.049 8.97576ZM52.375 9.67892C52.3669 9.66208 52.4037 9.62358 52.4346 9.60174C52.4488 9.58801 52.4964 9.57199 52.513 9.5778C52.649 9.616 52.7595 9.68725 52.9154 9.69508C53.1437 9.70954 53.1258 9.60062 53.1328 9.50039C53.1362 9.46421 53.1954 9.41487 53.2351 9.36807C53.2794 9.38822 53.3432 9.40587 53.3594 9.43955C53.4619 9.68071 53.4336 9.70819 52.9035 9.94297C52.6174 10.067 52.5478 10.066 52.4772 9.934C52.431 9.85251 52.4016 9.76291 52.375 9.67892ZM50.6828 10.6744C50.6997 10.6663 50.7275 10.6667 50.7527 10.6615C50.7581 10.6727 50.7718 10.6868 50.7633 10.6978C50.7319 10.7476 50.6787 10.7663 50.6234 10.7376C50.6234 10.7376 50.6575 10.6936 50.6828 10.6744ZM50.6227 11.5542C50.6491 11.4654 50.7002 11.3993 50.832 11.3427C50.9862 11.2752 51.1665 11.1468 51.292 11.1347C51.7301 11.0965 52.1457 10.8823 52.569 10.7129C52.6278 10.6914 52.7168 10.7039 52.7499 10.7294C52.8077 10.7776 52.7953 10.8667 52.6799 10.943C52.5365 11.0329 52.4016 11.1118 52.4418 11.2238C52.7212 11.1721 52.9882 11.2095 53.2603 10.8985C53.3708 10.7691 53.69 10.6706 53.9255 10.5709C53.9704 10.5493 54.048 10.581 54.0838 10.6122C54.1582 10.6662 54.0955 10.7657 53.9832 10.8198C53.1359 11.2144 52.2748 11.5948 51.4247 11.9838C51.248 12.0621 51.1392 12.0661 51.0624 11.9786C51.0185 11.9306 50.9044 11.9234 50.8154 11.9109C50.7237 11.8929 50.5534 11.9127 50.5457 11.868C50.5051 11.7838 50.5905 11.6596 50.6227 11.5542ZM42.877 14.4992C43.0308 14.4596 43.1789 14.4366 43.3354 14.4027C43.534 14.3554 43.7273 14.283 43.8799 14.1403C43.9335 14.0937 44.01 14.0084 44.0435 14.0061C44.66 13.9649 45.1929 13.535 45.7728 13.3316C46.1566 13.195 46.5081 12.9772 46.9297 12.9192C47.2007 12.8786 47.5437 12.6717 47.8522 12.5368C48.4636 12.2698 49.0565 11.9356 49.6988 11.8474C49.8942 11.8223 50.1206 11.5887 50.3173 11.6668C50.1502 11.8511 49.8874 11.9086 49.6685 12.0141C49.4776 12.1061 49.2841 12.1925 49.0905 12.2789C49.0905 12.2789 49.0905 12.2789 49.0932 12.2845C48.7818 12.4277 48.4733 12.5626 48.1619 12.7058C47.929 12.8111 47.7157 12.9139 47.5403 13.0953C47.4046 13.2299 47.1686 13.3574 47.0073 13.3384C46.7735 13.3127 46.6843 13.5148 46.5277 13.5488C46.3375 13.599 46.1447 13.6296 45.9719 13.6299C45.7683 13.6381 45.5883 13.7525 45.3952 13.8111C45.1405 13.8854 45.031 14.1319 44.8021 14.1592C44.5118 14.1885 44.2559 14.3464 43.9896 14.454C43.757 14.5454 43.5185 14.6534 43.2884 14.7643C43.0807 14.8644 42.8961 14.9119 42.7349 14.8789C42.6515 14.8638 42.5825 14.821 42.5442 14.7703C42.5061 14.7056 42.7007 14.5496 42.877 14.4992ZM38.445 15.3212C38.5385 15.2139 38.5494 15.0356 38.8225 15.0424C38.984 15.0475 38.9998 14.9223 39.0923 14.8847C39.1428 14.8603 39.2572 14.8536 39.257 14.8675C39.2533 14.9316 39.2604 15.0181 39.1982 15.0757C39.1276 15.1443 38.9904 15.1897 38.9006 15.233C38.766 15.284 38.6538 15.3381 38.539 15.3727C38.4326 15.4102 38.3912 15.3817 38.445 15.3212ZM37.4284 16.2401C37.4565 16.2265 37.4818 16.2074 37.5014 16.2049C37.5683 16.2003 37.565 16.2365 37.4889 16.2939C37.4777 16.2993 37.4332 16.2931 37.4139 16.2816C37.3999 16.2814 37.4226 16.2567 37.4284 16.2401ZM36.6078 16.1306C36.6384 16.1366 36.697 16.1291 36.6968 16.143C36.6993 16.1626 36.6511 16.2204 36.6372 16.2202C36.517 16.2436 36.5064 16.2072 36.6078 16.1306ZM36.0569 16.8389C36.0875 16.8449 36.1405 16.8401 36.1459 16.8513C36.1484 16.8709 36.1002 16.9287 36.0863 16.9285C35.9717 16.9491 35.9611 16.9127 36.0569 16.8389ZM35.747 16.6839C35.7776 16.6899 35.8223 16.6822 35.8277 16.6934C35.8331 16.7046 35.7936 16.7375 35.7709 16.7623C35.7458 16.7675 35.7206 16.7727 35.6928 16.7723C35.7154 16.7475 35.7354 16.7172 35.747 16.6839ZM34.7275 17.6111C34.7554 17.6115 34.7859 17.6175 34.8082 17.6206C34.7911 17.6427 34.7685 17.6674 34.7514 17.6895C34.7263 17.6947 34.7067 17.6972 34.6816 17.7024C34.6932 17.6691 34.7132 17.6387 34.7275 17.6111ZM29.8524 19.3937C29.9204 19.3195 30.0299 19.2597 30.1314 19.1832C30.2459 19.1625 30.3493 19.1473 30.4582 19.1294C30.4046 19.176 30.3537 19.2282 30.2944 19.2775C30.2352 19.3268 30.1732 19.3705 30.1113 19.4142C30.0803 19.4361 30.0521 19.4635 30.0238 19.491C29.9616 19.5486 29.8889 19.5698 29.8477 19.5274C29.8258 19.4965 29.8156 19.4322 29.8524 19.3937ZM29.2221 20.583C29.2306 20.5719 29.2391 20.5609 29.2559 20.5528C29.2728 20.5447 29.3063 20.5424 29.3258 20.5399C29.3312 20.5511 29.331 20.5651 29.3364 20.5763C29.2888 20.5923 29.2385 20.6027 29.1909 20.6187C29.1994 20.6077 29.2135 20.594 29.2221 20.583ZM27.1406 19.9815C27.1685 19.9819 27.199 19.9879 27.2269 19.9883C27.2042 20.0131 27.1872 20.0351 27.1645 20.0599C27.1394 20.0651 27.1142 20.0703 27.089 20.0755C27.109 20.0451 27.1263 20.0091 27.1406 19.9815ZM26.3968 20.921C26.408 20.9156 26.4496 20.9302 26.4885 20.9391C26.4658 20.9638 26.4345 21.0135 26.4205 21.0133C26.3033 21.0284 26.301 20.9949 26.3968 20.921ZM24.7065 21.9779C24.7094 21.9695 24.7067 21.9639 24.7123 21.9612C24.7236 21.9558 24.7292 21.9531 24.7404 21.9477C24.7139 21.8498 24.8154 21.7732 24.9696 21.7058C24.9977 21.6922 25.0395 21.6928 25.0701 21.6989C25.1285 21.7053 25.1223 21.7498 25.0379 21.8043C24.9479 21.8615 24.8414 21.899 24.7404 21.9477C24.7431 21.9533 24.7375 21.956 24.7402 21.9616C24.729 21.967 24.7178 21.9725 24.7065 21.9779C24.6976 22.0168 24.6887 22.0557 24.6714 22.0916C24.6685 22.0999 24.5985 22.1268 24.5958 22.1212C24.5521 22.0592 24.6223 22.0184 24.7065 21.9779ZM21.4952 22.8064C21.4979 22.812 21.5034 22.8093 21.5062 22.8149C21.7224 22.7038 21.997 22.5991 22.1215 22.4699C22.2998 22.2802 22.535 22.3951 22.7025 22.1829C22.8133 22.0396 23.116 21.9214 23.2825 21.7788C23.4773 21.6089 23.707 21.5258 23.9342 21.4232C24.0604 21.3693 24.1581 21.3568 24.2158 21.4189C24.2761 21.4867 24.2079 21.5749 24.0984 21.6346C23.913 21.7378 23.7167 21.8186 23.5286 21.9162C23.4949 21.9324 23.4828 21.9936 23.4851 22.027C23.4822 22.0354 23.5519 22.0364 23.5883 22.0258C23.7032 21.9773 23.8211 21.9204 23.9388 21.8776C23.9725 21.8613 24.0114 21.8703 24.0448 21.8679C24.1033 21.8744 24.0942 21.9272 23.9931 21.9759C23.701 22.1305 23.4037 22.26 23.1524 22.4848C23.0084 22.6165 22.6743 22.7845 22.5013 22.7987C22.1666 22.8217 21.6924 23.0434 21.5201 22.8151C21.5145 22.8178 21.5032 22.8233 21.492 22.8287L21.4952 22.8064ZM1.96335 39.4148C1.93528 39.4284 1.8993 39.4111 1.87143 39.4107C1.89409 39.3859 1.91404 39.3556 1.9423 39.3281C1.97287 39.3341 2.00343 39.3402 2.03962 39.3435C2.00864 39.3653 1.99141 39.4013 1.96335 39.4148ZM2.78966 41.818C2.77363 41.7704 2.78546 41.7232 2.82516 41.6764C2.86485 41.6296 2.92952 41.5915 3.01913 41.5621C3.04138 41.5652 3.07755 41.5685 3.10812 41.5746C3.13868 41.5806 3.16095 41.5837 3.15533 41.5864C3.08135 41.6912 2.99634 41.7875 2.91404 41.8894C2.86704 41.8637 2.80028 41.8544 2.78966 41.818ZM3.10674 44.1692C3.11918 44.0802 3.12891 43.9856 3.16069 43.908C3.207 43.7888 3.25894 43.6669 3.34103 43.5789C3.41461 43.502 3.51213 43.5034 3.58389 43.5518C3.55982 43.6741 3.53846 43.802 3.54807 43.908C3.55829 43.9723 3.5238 44.0442 3.49202 44.1218C3.44712 44.1434 3.40222 44.1651 3.35731 44.1867C3.27102 44.1799 3.19033 44.1704 3.10674 44.1692ZM7.39232 46.7172C7.36426 46.7308 7.31184 46.6938 7.27025 46.6792C7.28479 46.6376 7.29682 46.5765 7.32489 46.563C7.35295 46.5494 7.40537 46.5864 7.45258 46.5983C7.43243 46.6426 7.42039 46.7037 7.39232 46.7172ZM10.4998 49.7916C10.4218 49.7877 10.3355 49.7809 10.2575 49.777C10.3086 49.7108 10.3462 49.6166 10.4136 49.5842C10.4809 49.5517 10.5752 49.5893 10.6615 49.5961C10.6076 49.6567 10.5565 49.7228 10.4998 49.7916ZM10.9593 49.2382C10.9316 49.2238 10.9066 49.2151 10.879 49.2007C10.9185 49.1679 10.9607 49.1406 10.9946 49.1104C11.0164 49.1414 10.9794 49.1939 10.9593 49.2382ZM18.9925 49.9175C18.9839 49.9285 18.9203 49.897 18.8873 49.8714C18.8735 49.8573 18.8797 49.8128 18.8801 49.7849C18.9082 49.7714 18.9365 49.7439 18.9587 49.747C19.0421 49.7622 19.0606 49.8293 18.9925 49.9175ZM20.0075 50.6457C19.9924 50.7291 19.9281 50.7393 19.8455 50.6684C19.8372 50.6655 19.8634 50.5906 19.886 50.5659C19.9002 50.5522 19.9418 50.5667 19.9696 50.5671C19.9831 50.5952 20.0106 50.6234 20.0075 50.6457ZM18.2865 44.4059C18.2162 44.4467 18.1438 44.4401 18.0773 44.4168C18.1779 44.396 18.2814 44.3668 18.3796 44.3264C18.3513 44.3539 18.323 44.3814 18.2865 44.4059ZM21.5685 50.2391C21.5213 50.2273 21.4685 50.2182 21.4213 50.2064C21.4302 50.1675 21.4474 50.1315 21.4564 50.0926C21.4923 50.1098 21.5283 50.1271 21.5643 50.1443C21.5666 50.1778 21.5662 50.2056 21.5685 50.2391ZM21.0407 44.3511C21.0047 44.3338 20.9632 44.3193 20.9272 44.3021C20.9444 44.2661 20.9481 44.202 20.9733 44.1968C21.0041 44.1889 21.0481 44.223 21.0897 44.2375C21.0808 44.2764 21.0636 44.3124 21.0407 44.3511ZM23.7075 43.0241C23.6847 43.0628 23.6756 43.1156 23.6446 43.1375C23.3796 43.3482 23.0976 43.3804 22.7887 43.1557C22.7584 43.1358 22.7311 43.0936 22.7315 43.0657C22.7377 43.0212 22.7666 42.952 22.7945 42.9524C22.9897 42.9413 23.1821 42.9385 23.3771 42.9413C23.4183 42.9837 23.4595 43.0261 23.4921 43.0795C23.543 43.0273 23.5911 42.9834 23.6364 42.9339C23.6503 42.9341 23.6699 42.9316 23.6838 42.9318C23.6948 42.9404 23.7079 42.9963 23.7075 43.0241ZM24.4056 42.7361C24.3971 42.7471 24.3335 42.7155 24.3004 42.6899C24.2867 42.6758 24.3012 42.6342 24.3045 42.598C24.3326 42.5845 24.358 42.5654 24.3802 42.5685C24.4719 42.5865 24.4821 42.6508 24.4056 42.7361ZM73.1618 15.1193C73.1285 15.1076 73.1036 15.0989 73.0703 15.0873C73.0489 15.0285 73.0164 14.9611 72.9893 14.905C73.1128 14.8454 73.2309 14.7747 73.3484 14.7458C73.3457 14.7401 73.3569 14.7347 73.3569 14.7347C73.376 14.7601 73.3952 14.7855 73.4087 14.8135C73.3181 14.9125 73.2302 15.0172 73.1618 15.1193Z" fill="#FCAE03"/>
</svg>
