<svg width="27" height="20" viewBox="0 0 27 20" fill="none" xmlns="http://www.w3.org/2000/svg">
<path d="M0 2.08334C0 1.39298 0.549475 0.833344 1.22727 0.833344H25.7727C26.4506 0.833344 27 1.39298 27 2.08334C27 2.77371 26.4506 3.33334 25.7727 3.33334H1.22727C0.549475 3.33334 0 2.77371 0 2.08334Z" fill="white"/>
<path d="M0 10.4167C0 9.72628 0.429277 9.16666 0.958807 9.16666H20.1349C20.6645 9.16666 21.0938 9.72628 21.0938 10.4167C21.0938 11.107 20.6645 11.6667 20.1349 11.6667H0.958807C0.429277 11.6667 0 11.107 0 10.4167Z" fill="white"/>
<path d="M1.22727 17.5C0.549475 17.5 0 18.0596 0 18.75C0 19.4404 0.549475 20 1.22727 20H25.7727C26.4506 20 27 19.4404 27 18.75C27 18.0596 26.4506 17.5 25.7727 17.5H1.22727Z" fill="white"/>
</svg>
