<svg width="98" height="98" viewBox="0 0 98 98" fill="none" xmlns="http://www.w3.org/2000/svg">
<circle cx="49" cy="49" r="49" fill="#C4C4C4"/>
<path d="M67.7386 25H31.2614C27.8088 25 25 27.8089 25 31.2615V67.7386C25 71.1911 27.8088 74 31.2614 74H67.7386C71.1912 74 74 71.1911 74 67.7385V31.2615C74 27.8089 71.1912 25 67.7386 25ZM71.1138 67.7386C71.1138 69.5998 69.5997 71.1138 67.7386 71.1138H31.2614C29.4002 71.1138 27.8861 69.5997 27.8861 67.7386V62.4743L37.3851 54.3921C37.7318 54.0971 38.2375 54.0943 38.5874 54.3849L44.5376 59.3258C45.1113 59.8022 45.9535 59.7631 46.4808 59.2353L60.6189 45.0756C60.8744 44.8196 61.1723 44.7948 61.3279 44.8027C61.4829 44.8106 61.7772 44.866 62.0052 45.1468L71.1139 56.3623V67.7386H71.1138ZM71.1138 51.784L64.2456 43.3271C63.5644 42.4883 62.5549 41.9755 61.4757 41.9201C60.3973 41.8656 59.3399 42.2715 58.5765 43.0362L45.3687 56.2644L40.4314 52.1646C38.9997 50.9757 36.9322 50.9881 35.5148 52.194L27.8861 58.6848V31.2615C27.8861 29.4003 29.4002 27.8862 31.2614 27.8862H67.7386C69.5998 27.8862 71.1138 29.4003 71.1138 31.2615V51.784Z" fill="white"/>
<path d="M40.4257 31.0293C36.5884 31.0293 33.4668 34.1511 33.4668 37.9882C33.4668 41.8253 36.5885 44.947 40.4257 44.947C44.2628 44.947 47.3845 41.8253 47.3845 37.9882C47.3845 34.151 44.2629 31.0293 40.4257 31.0293ZM40.4257 42.0609C38.1799 42.0609 36.3529 40.2338 36.3529 37.9882C36.3529 35.7424 38.1799 33.9154 40.4257 33.9154C42.6714 33.9154 44.4984 35.7425 44.4984 37.9882C44.4984 40.2338 42.6714 42.0609 40.4257 42.0609Z" fill="white"/>
</svg>
