<svg width="37" height="37" viewBox="0 0 37 37" fill="none" xmlns="http://www.w3.org/2000/svg">
<circle cx="18.5" cy="18.5" r="17.5" fill="#FCAE03" stroke="#FFF4DA" stroke-width="2"/>
<path d="M7.84283 25H28.9195C29.6908 25 30.1547 24.4312 29.9527 23.728L26.6041 12.0055C26.4029 11.303 26.071 10.869 25.8621 11.0356C25.6533 11.2022 25.2752 11.8929 25.0182 12.5789L22.2823 19.8643C22.0251 20.5504 21.4536 20.6255 21.0065 20.0328L18.6086 16.8546C18.1608 16.2621 17.423 16.2529 16.959 16.8342L14.3887 20.0539C13.9247 20.6353 13.0842 20.7117 12.5107 20.225L11.6765 19.5166C11.103 19.0301 10.3079 19.136 9.90117 19.7536L7.18271 23.8813C6.77603 24.499 7.07083 25 7.84283 25Z" fill="white"/>
<path d="M12 15C13.1046 15 14 14.1046 14 13C14 11.8954 13.1046 11 12 11C10.8954 11 10 11.8954 10 13C10 14.1046 10.8954 15 12 15Z" fill="white"/>
</svg>
