<svg width="22" height="22" viewBox="0 0 22 22" fill="none" xmlns="http://www.w3.org/2000/svg">
<path d="M18.6334 5.57414L14.0811 0.511428C13.8043 0.201993 13.4265 0.0257863 13.0375 0.0257863L4.46397 0C3.42408 0 2.5787 0.962688 2.5787 2.14886V19.8468C2.5787 21.0115 3.45027 22 4.48268 22H17.1633C18.1771 22 19 21.033 19 19.8425V6.60129C19 6.2016 18.8691 5.8363 18.6334 5.57414ZM14.0624 2.88377L16.4152 5.49678H14.4701C14.2531 5.49678 14.0624 5.30338 14.0624 5.0842V2.88377ZM17.1633 20.2809H4.48268C4.2732 20.2809 4.07495 20.0703 4.07495 19.8425V2.14886C4.07495 1.92108 4.25824 1.71909 4.46397 1.71909L12.5661 1.74487V5.0842C12.5661 6.25747 13.419 7.21586 14.4701 7.21586H17.5037V19.8425C17.5037 20.0574 17.3766 20.2809 17.1633 20.2809Z" fill="#7C75AF"/>
<path d="M5.83304 11.4706C5.83304 11.9434 6.16969 12.3302 6.58116 12.3302H13.1272C13.5387 12.3302 13.8754 11.9434 13.8754 11.4706C13.8754 10.9979 13.5387 10.6111 13.1272 10.6111H6.58116C6.16969 10.6111 5.83304 10.9979 5.83304 11.4706Z" fill="#7C75AF"/>
<path d="M6.54378 8.89206H10.8829C11.2944 8.89206 11.631 8.50526 11.631 8.03252C11.631 7.55977 11.2944 7.17297 10.8829 7.17297H6.54378C6.13231 7.17297 5.79565 7.55977 5.79565 8.03252C5.79565 8.50526 6.13231 8.89206 6.54378 8.89206Z" fill="#7C75AF"/>
<path d="M14.9975 14.0492H6.58116C6.16969 14.0492 5.83304 14.436 5.83304 14.9087C5.83304 15.3815 6.16969 15.7683 6.58116 15.7683H14.9975C15.409 15.7683 15.7457 15.3815 15.7457 14.9087C15.7457 14.436 15.409 14.0492 14.9975 14.0492Z" fill="#7C75AF"/>
</svg>
