<svg width="25" height="25" viewBox="0 0 25 25" fill="none" xmlns="http://www.w3.org/2000/svg">
<g clip-path="url(#clip0_358_852)">
<path d="M24.442 5.08859L19.0013 5.49217C18.9738 5.49421 18.9476 5.50307 18.9258 5.51769C18.9041 5.5323 18.8876 5.55204 18.8786 5.57453C18.8695 5.59702 18.8681 5.62129 18.8747 5.64442C18.8812 5.66756 18.8954 5.68856 18.9155 5.7049L20.2879 6.82207L19.9833 7.09044L19.78 7.26949L18.7481 8.19407C18.3505 8.55577 17.9544 8.91833 17.56 9.28174C17.2774 9.54312 16.9964 9.80603 16.717 10.0705C16.0482 10.7023 15.3879 11.3413 14.7361 11.9876C14.4118 12.3117 14.0887 12.6374 13.7703 12.9667C13.6857 13.0541 13.6022 13.1426 13.5182 13.2306L13.1778 13.0655L7.8668 10.4888L7.01909 10.0777L6.41163 10.6488L5.65156 11.3635L-0.332458 16.9891L0.924198 18.047L7.39883 12.6544H7.39943L11.1897 14.7824L13.1277 15.8706L13.8306 16.2652L13.9915 16.3552L14.906 15.6637C15.2804 15.3802 15.649 15.0921 16.0118 14.7994C16.3761 14.5071 16.7349 14.2113 17.0926 13.9144C17.8068 13.3191 18.5104 12.7156 19.2035 12.1038C19.8998 11.4941 20.583 10.8736 21.2644 10.2521L22.2784 9.31261L22.4155 9.18346L22.774 8.84575L24.0845 9.91243C24.1043 9.92859 24.1291 9.93952 24.156 9.9439C24.1828 9.94828 24.2105 9.94595 24.2359 9.93716C24.2612 9.92838 24.2831 9.91352 24.2989 9.89434C24.3148 9.87516 24.324 9.85245 24.3254 9.82892L24.597 5.2178C24.5981 5.20019 24.5947 5.1826 24.5872 5.16621C24.5797 5.14982 24.5682 5.135 24.5535 5.12276C24.5389 5.11052 24.5213 5.10114 24.502 5.09524C24.4828 5.08935 24.4623 5.08708 24.442 5.08859Z" fill="white"/>
<path d="M0.951477 24.2397C0.951657 24.3467 1.00099 24.4493 1.08867 24.525C1.17634 24.6006 1.2952 24.6432 1.41919 24.6434H4.6613C4.78529 24.6432 4.90415 24.6006 4.99183 24.525C5.0795 24.4493 5.12884 24.3467 5.12902 24.2397V16.075L0.951477 19.5543V24.2397Z" fill="white"/>
<path d="M6.74472 14.729V24.2396C6.7449 24.3467 6.79424 24.4492 6.88191 24.5249C6.96958 24.6006 7.08844 24.6432 7.21243 24.6433H10.4545C10.5785 24.6432 10.6974 24.6006 10.7851 24.5249C10.8727 24.4492 10.9221 24.3467 10.9223 24.2396V15.9455L7.55418 14.0547L6.74472 14.729Z" fill="white"/>
<path d="M14.107 17.7319L12.538 16.8525V24.2397C12.5382 24.3467 12.5875 24.4493 12.6752 24.525C12.7629 24.6007 12.8817 24.6433 13.0057 24.6434H16.2478C16.3718 24.6433 16.4907 24.6007 16.5783 24.525C16.666 24.4493 16.7154 24.3467 16.7155 24.2397V15.7383C16.4041 15.9874 16.0783 16.2406 15.7472 16.4915L14.107 17.7319Z" fill="white"/>
<path d="M20.1118 12.8765C19.4698 13.4407 18.883 13.9458 18.3313 14.4105V24.2395C18.3315 24.3465 18.3808 24.4491 18.4685 24.5247C18.5562 24.6004 18.675 24.643 18.799 24.6431H22.0411C22.1651 24.643 22.284 24.6004 22.3716 24.5247C22.4593 24.4491 22.5087 24.3465 22.5088 24.2395V10.7141L22.191 11.0086C21.5325 11.6091 20.8298 12.2481 20.1118 12.8765Z" fill="white"/>
<path d="M12.6667 8.61111C11.275 8.61111 10.0667 7.82222 9.46389 6.66667H12.6667V5.55556H9.10278C9.075 5.375 9.05556 5.18889 9.05556 5C9.05556 4.81111 9.075 4.625 9.10278 4.44444H12.6667V3.33333H9.46389C10.0667 2.17778 11.2722 1.38889 12.6667 1.38889C13.5639 1.38889 14.3833 1.71667 15.0139 2.25833L16 1.27778C15.1167 0.486111 13.9472 0 12.6667 0C10.4917 0 8.64444 1.39167 7.95833 3.33333H6V4.44444H7.7C7.67778 4.62778 7.66667 4.81111 7.66667 5C7.66667 5.18889 7.67778 5.37222 7.7 5.55556H6V6.66667H7.95833C8.64444 8.60833 10.4917 10 12.6667 10C13.9472 10 15.1167 9.51389 16 8.72222L15.0139 7.73889C14.3833 8.28056 13.5639 8.61111 12.6667 8.61111Z" fill="white"/>
</g>
<defs>
<clipPath id="clip0_358_852">
<rect width="25" height="25" fill="white"/>
</clipPath>
</defs>
</svg>
