<svg width="22" height="16" viewBox="0 0 22 16" fill="none" xmlns="http://www.w3.org/2000/svg">
<path d="M13.4159 14.5158H11.7321V6.31613H18.2479C18.6522 6.31613 18.98 5.98835 18.98 5.58405V1.96005C18.98 1.55576 18.6522 1.22791 18.2479 1.22791H3.75205C3.34775 1.22791 3.0199 1.55576 3.0199 1.96005V5.58405C3.0199 5.98835 3.34775 6.31613 3.75205 6.31613H10.2678V14.5158H8.58405C8.17968 14.5158 7.8519 14.8436 7.8519 15.2479C7.8519 15.6522 8.17968 15.9801 8.58405 15.9801H13.4159C13.8202 15.9801 14.148 15.6522 14.148 15.2479C14.148 14.8436 13.8202 14.5158 13.4159 14.5158ZM4.48412 2.6922H17.5158V4.85191H4.48412V2.6922Z" fill="#7C75AF"/>
<path d="M0 15.2479C0 15.6522 0.327852 15.98 0.732148 15.98C1.13644 15.98 1.46422 15.6522 1.46422 15.2479V11.148H6.03993V15.2479C6.03993 15.6522 6.36778 15.98 6.77207 15.98C7.17637 15.98 7.50415 15.6522 7.50415 15.2479V7.99997C7.50415 7.59568 7.17637 7.26782 6.77207 7.26782H1.46422V0.752046C1.46422 0.347749 1.13644 0.0198975 0.732148 0.0198975C0.327852 0.0198975 0 0.347749 0 0.752046V15.2479ZM1.46422 8.73212H6.03993V9.6839H1.46422V8.73212Z" fill="#7C75AF"/>
<path d="M14.4958 15.2479C14.4958 15.6522 14.8236 15.98 15.2279 15.98C15.6322 15.98 15.9601 15.6522 15.9601 15.2479V11.148H20.5358V15.2479C20.5358 15.6522 20.8636 15.98 21.2679 15.98C21.6722 15.98 22 15.6522 22 15.2479V0.752046C22 0.347749 21.6722 0.0198975 21.2679 0.0198975C20.8636 0.0198975 20.5358 0.347749 20.5358 0.752046V7.26782H15.2279C14.8236 7.26782 14.4958 7.59568 14.4958 7.99997V15.2479ZM15.9601 9.68382V8.73205H20.5358V9.68382H15.9601Z" fill="#7C75AF"/>
</svg>
